<?xml version="1.0" encoding="utf-8"?>
<!-- Generator: Adobe Illustrator 19.1.0, SVG Export Plug-In . SVG Version: 6.00 Build 0)  -->
<svg version="1.1" id="Layer_1" xmlns="http://www.w3.org/2000/svg" xmlns:xlink="http://www.w3.org/1999/xlink" x="0px" y="0px"
	 viewBox="0 0 296.1 50.5" style="enable-background:new 0 0 296.1 50.5;" xml:space="preserve">
<style type="text/css">
	.st0{fill:#010101;}
</style>
<g>
	<path class="st0" d="M5.9,25.2v1.6H0.5v-1.6l1.3-0.5v-8.5l-1.3-0.5v-1.5l4.1-0.1H6c1.5,0,2.7,0.3,3.5,0.9c0.8,0.6,1.2,1.5,1.2,2.7
		c0,1.6-0.7,2.7-2,3.4c0.3,0.3,0.6,0.7,0.8,1.2l1.2,2.5l1.2,0.4v1.6H8.5L7,23.4c-0.3-0.7-0.6-1.2-0.8-1.4c-0.2-0.2-0.5-0.3-1-0.3
		H4.6v3L5.9,25.2z M4.6,16.2v3.7h1c0.7,0,1.3-0.2,1.7-0.5s0.6-0.8,0.6-1.4c0-0.5-0.2-1-0.5-1.3s-0.8-0.5-1.3-0.5H4.6z"/>
	<path class="st0" d="M22.5,16.2v3h3.6v2h-3.6v3.5h3.2l0.4-1.5h1.7v3.6h-9.4v-1.6l1.3-0.5v-8.5l-1.3-0.5v-1.5l4.1-0.1h5v3.5h-1.7
		l-0.4-1.4H22.5z"/>
	<path class="st0" d="M42.5,14.1l3.9,10.7l1.3,0.4v1.6h-5.7v-1.6l1.3-0.4l-0.4-1.3h-4l-0.4,1.3l1.4,0.4v1.6h-5.4v-1.6l1.3-0.4
		l4-10.7L42.5,14.1z M40.9,17.2l-1.4,4.3h2.8L40.9,17.2z"/>
	<path class="st0" d="M57.9,16.2v8.5h2.8l0.4-2h1.7v4.1h-9v-1.6l1.3-0.5v-8.5l-1.3-0.5v-1.5l5.5-0.1v1.6L57.9,16.2z"/>
	<path class="st0" d="M81.7,48.8v-47h4.8v43.2h9.3v3.8H81.7z"/>
	<path class="st0" d="M120,14.3v21.9c0,5.1-0.8,8.6-2.4,10.5s-3.9,2.9-7,2.9c-3,0-5.3-1-7-2.9s-2.4-5.5-2.4-10.5V14.3
		c0-5.1,0.8-8.6,2.4-10.5c1.6-1.9,3.9-2.9,7-2.9c3,0,5.3,1,7,2.9C119.2,5.7,120,9.2,120,14.3z M115.2,37.1V13.4
		c0-5.8-1.5-8.6-4.6-8.6c-1.5,0-2.6,0.6-3.4,1.9c-0.8,1.2-1.2,3.5-1.2,6.8v23.7c0,3.3,0.4,5.5,1.2,6.8c0.8,1.2,2,1.9,3.4,1.9
		C113.7,45.8,115.2,42.9,115.2,37.1z"/>
	<path class="st0" d="M133.2,43.9c0.8,1.2,1.8,1.8,3.2,1.8c1.4,0,2.4-0.5,3.1-1.6c0.7-1.1,1.2-3.1,1.4-6l4.2,0.5
		c-0.4,4.1-1.3,6.9-2.7,8.5c-1.5,1.6-3.6,2.4-6.3,2.4c-2.7,0-4.9-1-6.5-2.9c-1.6-2-2.4-5.6-2.4-10.8V14.6c0-5.2,0.8-8.8,2.4-10.8
		c1.6-2,3.8-2.9,6.5-2.9c2.7,0,4.8,0.7,6.2,2.1c1.4,1.4,2.3,3.9,2.6,7.5l-4.4,1.1c-0.2-2.6-0.7-4.3-1.3-5.3c-0.7-1-1.6-1.5-2.9-1.5
		c-1.3,0-2.3,0.6-3.1,1.9c-0.8,1.3-1.1,3.6-1.1,6.9v23.6C132.1,40.5,132.5,42.7,133.2,43.9z"/>
	<path class="st0" d="M166.2,48.8l-1.9-15.9h-8.5l-1.8,15.9h-4.8l7.2-47h7.4l7.2,47H166.2z M160.2,7.8L156.6,29h7.1L160.2,7.8z"/>
	<path class="st0" d="M177.3,48.8v-47h4.8v43.2h9.3v3.8H177.3z"/>
	<path class="st0" d="M211,24.7v24h-4.8v-47h14.4v3.8H211v15.3h8.7v3.8H211z"/>
	<path class="st0" d="M245,14.3v21.9c0,5.1-0.8,8.6-2.4,10.5s-3.9,2.9-7,2.9c-3,0-5.3-1-7-2.9s-2.4-5.5-2.4-10.5V14.3
		c0-5.1,0.8-8.6,2.4-10.5c1.6-1.9,3.9-2.9,7-2.9c3,0,5.3,1,7,2.9C244.2,5.7,245,9.2,245,14.3z M240.3,37.1V13.4
		c0-5.8-1.5-8.6-4.6-8.6c-1.5,0-2.6,0.6-3.4,1.9c-0.8,1.2-1.2,3.5-1.2,6.8v23.7c0,3.3,0.4,5.5,1.2,6.8c0.8,1.2,2,1.9,3.4,1.9
		C238.7,45.8,240.3,42.9,240.3,37.1z"/>
	<path class="st0" d="M270.7,14.3v21.9c0,5.1-0.8,8.6-2.4,10.5s-3.9,2.9-7,2.9c-3,0-5.3-1-7-2.9s-2.4-5.5-2.4-10.5V14.3
		c0-5.1,0.8-8.6,2.4-10.5c1.6-1.9,3.9-2.9,7-2.9c3,0,5.3,1,7,2.9C269.9,5.7,270.7,9.2,270.7,14.3z M265.9,37.1V13.4
		c0-5.8-1.5-8.6-4.6-8.6c-1.5,0-2.6,0.6-3.4,1.9c-0.8,1.2-1.2,3.5-1.2,6.8v23.7c0,3.3,0.4,5.5,1.2,6.8c0.8,1.2,2,1.9,3.4,1.9
		C264.4,45.8,265.9,42.9,265.9,37.1z"/>
	<path class="st0" d="M277.9,48.8v-47h8.2c3,0,5.4,1,7,2.9c1.6,1.9,2.5,5.5,2.5,10.5v20.1c0,5.1-0.8,8.6-2.5,10.5
		c-1.6,1.9-4,2.9-7,2.9H277.9z M290.8,36.4V14.2c0-5.7-1.6-8.6-4.7-8.6h-3.4V45h3.4C289.2,45,290.8,42.1,290.8,36.4z"/>
	<path class="st0" d="M62.8,38.3c0,0.2,0.2,0.3,0,0.5c0,0,0,0-0.1,0.1c0,0,0,0,0,0c0,0,0,0-0.1,0h0c0,0,0,0,0,0c0,0,0,0,0,0
		c0,0,0,0-0.1,0c0,0,0,0,0,0c0,0-0.1,0-0.1,0c0,0,0,0-0.1,0c0,0,0,0,0,0c0,0-0.1,0-0.1,0c-0.1,0-0.2,0-0.2,0c-0.1,0-0.2,0-0.4,0
		c-0.3,0-0.3,0-0.6,0h-0.6c-0.3,0-0.3,0-0.6,0c-0.3,0-0.3,0.1-0.6,0.1c0,0-0.1,0-0.1,0c0,0,0,0,0,0c0,0,0,0,0,0c0,0,0,0,0,0s0,0,0,0
		c0,0,0,0-0.1,0c-0.1,0-0.1-0.1-0.3-0.1c-0.1,0-0.2,0-0.2,0c0,0-0.1,0-0.1,0c0,0,0,0,0,0s0,0,0,0c0,0,0,0-0.1,0c0,0,0,0,0,0
		c0,0-0.1,0-0.1,0c-0.1,0-0.2,0-0.2,0c-0.1,0-0.2,0-0.4,0c-0.2,0-0.3,0-0.4,0c0,0-0.1,0-0.2,0c-0.3,0-0.3,0-0.6,0
		c-0.3,0-0.3,0.1-0.6,0.1c-0.3,0-0.3-0.1-0.6-0.1c-0.3,0-0.3,0.1-0.6,0.1c-0.3,0-0.3-0.1-0.6-0.1h-0.1c0,0,0,0,0,0h-0.1c0,0,0,0,0,0
		c-0.1,0-0.1,0-0.2,0c0,0,0,0,0,0c-0.1,0-0.1,0-0.2,0c-0.1,0-0.1,0-0.2,0c-0.1,0-0.1,0-0.2,0h-1.4c-0.3,0-0.3-0.1-0.6-0.1
		c-0.3,0-0.3,0-0.6,0h-0.1c-0.2,0-0.2,0-0.5,0c-0.2,0-0.3,0-0.4,0c-0.1,0-0.1,0-0.2,0c-0.3,0-0.3,0-0.6,0c-0.3,0-0.3-0.1-0.6-0.1
		c-0.3,0-0.3,0.1-0.6,0.1c-0.3,0-0.3,0-0.6,0c-0.1,0-0.1,0-0.2,0c-0.1,0-0.2,0-0.4,0c-0.3,0-0.3,0-0.5,0h-0.1c-0.3,0-0.3,0-0.6,0
		c-0.3,0-0.3,0-0.6,0c-0.3,0-0.3,0-0.6,0c-0.3,0-0.3,0-0.6,0c-0.3,0-0.3,0-0.6,0c-0.3,0-0.3,0-0.5,0h-0.1c-0.1,0-0.2,0-0.2,0
		c-0.1,0-0.2,0-0.4,0c-0.2,0-0.3,0-0.4,0.1c-0.1,0-0.1,0-0.2,0c-0.3,0-0.3,0-0.6,0c-0.3,0-0.3,0-0.6,0c-0.3,0-0.3,0-0.6,0
		c-0.3,0-0.3,0-0.6,0c-0.3,0-0.3-0.1-0.6-0.1c-0.3,0-0.3,0-0.6,0c-0.3,0-0.3-0.1-0.6-0.1c-0.3,0-0.3,0-0.6,0c-0.3,0-0.3,0.1-0.6,0.1
		c-0.3,0-0.3,0-0.6,0c-0.3,0-0.3,0.1-0.6,0.1c-0.3,0-0.3-0.1-0.6-0.1h-0.1c-0.2,0-0.2,0-0.5,0c-0.3,0-0.3,0-0.6,0
		c-0.3,0-0.3,0-0.6,0c-0.3,0-0.3,0-0.6,0c-0.3,0-0.3,0-0.6,0c-0.3,0-0.3,0-0.6,0c-0.3,0-0.3,0-0.6,0c-0.1,0-0.2,0-0.2,0
		c-0.1,0-0.2,0-0.4,0c-0.3,0-0.3-0.1-0.6-0.1c-0.3,0-0.3,0-0.6,0c-0.3,0-0.3,0.1-0.6,0.1c-0.3,0-0.3-0.1-0.6-0.1c-0.3,0-0.3,0-0.6,0
		c-0.3,0-0.3,0-0.6,0c-0.3,0-0.3,0-0.6,0c-0.1,0-0.2,0-0.2,0c-0.1,0-0.2,0-0.4,0c-0.1,0-0.2,0-0.2,0h-0.2c0,0-0.1,0-0.2,0
		c-0.3,0-0.3,0-0.6,0c-0.3,0-0.3,0-0.6,0c-0.3,0-0.3-0.1-0.6-0.1c-0.3,0-0.3,0-0.6,0c-0.2,0-0.3,0-0.4,0.1c0,0-0.1,0-0.2,0
		c-0.3,0-0.3-0.1-0.6-0.1c-0.3,0-0.3,0.1-0.6,0.1c-0.1,0-0.1,0-0.2,0c-0.1,0-0.2-0.1-0.4-0.1c-0.3,0-0.3,0-0.6,0c-0.2,0-0.3,0-0.4,0
		c-0.1,0-0.1,0-0.2,0c-0.3,0-0.3,0-0.6,0c-0.1,0-0.1,0-0.2,0c-0.1,0-0.2,0.1-0.4,0.1c-0.2,0-0.3,0-0.4,0c-0.1,0-0.1,0-0.2,0
		c-0.3,0-0.3-0.1-0.6-0.1c-0.3,0-0.3,0.1-0.6,0.1c-0.3,0-0.3-0.1-0.6-0.1c-0.1,0-0.2,0-0.2,0c-0.1,0-0.2,0-0.4,0c-0.2,0-0.2,0-0.3,0
		s-0.1,0-0.3,0c-0.2,0-0.2,0-0.3,0c-0.1,0-0.1,0-0.3,0c-0.3,0-0.3-0.1-0.6-0.1c-0.2,0-0.3,0-0.3,0h-0.3c-0.1,0-0.1,0-0.2,0
		c-0.1,0-0.2,0.1-0.4,0.1c-0.2,0-0.3,0-0.4,0c-0.1,0-0.1,0-0.2,0c-0.3,0-0.3,0-0.6,0c-0.1,0-0.1,0-0.2,0c-0.1,0-0.2,0-0.4,0
		c-0.3,0-0.3,0.1-0.5,0.1H7.8c-0.3,0-0.3-0.1-0.6-0.1c-0.2,0-0.3,0-0.4,0c-0.1,0-0.1,0-0.2,0c-0.2,0-0.3,0-0.4,0h0c0,0-0.1,0-0.2,0
		H5.2c-0.1,0-0.2,0-0.4,0c-0.3,0-0.3,0-0.6,0c-0.3,0-0.3,0-0.6,0c-0.3,0-0.3,0-0.6,0c-0.3,0-0.3,0-0.6,0c0,0-0.1,0-0.1,0
		c0,0,0,0,0,0c0,0-0.1,0-0.1,0h0c0,0-0.1,0-0.1,0c0,0,0,0-0.1,0c0,0,0,0,0,0c0,0-0.1,0-0.1,0c0,0,0,0,0,0c0,0,0,0-0.1-0.1
		c-0.1-0.1-0.1-0.1-0.1-0.2v0c0-0.1,0-0.1,0.1-0.2c0,0,0,0,0-0.1c0,0,0,0,0,0c0,0,0-0.1,0-0.1c0-0.3,0-0.3,0-0.6
		c0-0.3-0.1-0.3-0.1-0.6c0,0,0-0.1,0-0.1c0,0,0-0.1,0-0.1c0-0.1-0.1-0.2,0-0.3c0,0,0,0,0-0.1c0,0,0,0,0.1-0.1c0,0,0,0,0.1-0.1
		c0,0,0,0,0,0c0,0,0,0,0.1,0c0,0,0,0,0,0c0,0,0,0,0,0c0,0,0,0,0,0c0.1,0,0.2,0.1,0.4,0.1c0,0,0,0,0.1,0c0.2,0,0.2,0,0.3,0
		c0,0,0,0,0.1,0h0c0,0,0,0,0,0h0c0,0,0,0,0,0H3c0,0,0,0,0,0c0.3,0,0.3,0,0.5,0h0.1c0.3,0,0.3-0.1,0.6-0.1c0.3,0,0.3,0,0.6,0
		c0.3,0,0.3-0.1,0.6-0.1c0.3,0,0.3,0,0.6,0c0.2,0,0.3,0.1,0.4,0.1c0.1,0,0.1,0,0.2,0c0.3,0,0.3-0.1,0.6-0.1c0.3,0,0.3,0,0.6,0
		c0.3,0,0.3,0.1,0.6,0.1c0.1,0,0.2,0,0.2,0c0.1,0,0.2-0.1,0.4-0.1c0.1,0,0.2,0,0.3,0c0.1,0,0.1,0,0.3,0c0.3,0,0.3,0,0.5,0.1h0.2
		c0.2,0,0.2,0,0.5,0c0.3,0,0.3,0,0.5,0h0.2c0.2,0,0.2,0,0.5,0c0.2,0,0.3,0,0.4,0c0,0,0.1,0,0.2,0c0.1,0,0.1,0,0.2,0
		c0.1,0,0.2,0,0.4,0c0.3,0,0.3,0,0.6,0c0.2,0,0.2,0,0.3,0c0.1,0,0.1,0,0.3,0c0.2,0,0.3,0,0.4,0c0.1,0,0.1,0,0.2,0
		c0.3,0,0.3,0.1,0.6,0.1c0.3,0,0.3,0,0.6,0c0.3,0,0.3,0,0.6,0c0.3,0,0.3,0.1,0.6,0.1c0.3,0,0.3-0.1,0.6-0.1c0.3,0,0.3,0,0.6,0
		c0.3,0,0.3,0,0.6,0c0.3,0,0.3,0,0.6,0c0.3,0,0.3,0.1,0.6,0.1c0.3,0,0.3,0,0.6,0c0.3,0,0.3,0,0.6,0c0.3,0,0.3,0.1,0.6,0.1
		c0.1,0,0.2,0,0.2,0c0.1,0,0.2-0.1,0.4-0.1c0.2,0,0.3,0,0.4,0.1c0,0,0.1,0,0.2,0c0.3,0,0.3-0.1,0.6-0.1c0.3,0,0.3,0,0.6,0
		c0.2,0,0.3,0,0.4,0c0,0,0.1,0,0.2,0c0.1,0,0.1,0,0.2,0c0.1,0,0.2,0.1,0.4,0.1c0.2,0,0.3,0,0.4,0h0.2c0.3,0,0.3,0,0.6,0
		c0.3,0,0.3,0,0.6,0c0,0,0.1,0,0.1,0h0c0,0,0,0,0.1,0c0,0,0,0,0,0c0,0,0,0,0,0c0,0,0.1,0,0.1,0c0,0,0.1,0,0.1,0h0c0,0,0.1,0,0.1,0
		c0.3,0,0.3,0,0.5-0.1c0,0,0.1,0,0.1,0c0.3,0,0.3,0,0.6,0h0.6c0.2,0,0.3,0,0.4,0.1c0.1,0,0.1,0,0.2,0c0.1,0,0.2,0,0.2,0
		c0.1,0,0.2,0,0.4,0c0.2,0,0.3,0,0.4,0c0.1,0,0.1,0,0.2,0h0.2c0.1,0,0.2,0,0.4,0c0.3,0,0.3,0,0.5,0h0.1c0.3,0,0.3-0.1,0.6-0.1
		c0.3,0,0.3,0.1,0.6,0.1c0.3,0,0.3-0.1,0.6-0.1c0.3,0,0.3,0,0.6,0c0.3,0,0.3,0,0.6,0c0.3,0,0.3,0,0.6,0c0.1,0,0.1,0,0.2,0
		c0.1,0,0.2,0,0.4,0c0.2,0,0.3,0,0.4,0h0.2c0.3,0,0.3,0,0.6,0c0.3,0,0.3,0,0.6,0c0.3,0,0.3,0,0.6,0h0.1c0.2,0,0.2,0,0.5,0
		c0.2,0,0.3,0,0.4,0c0,0,0.1,0,0.2,0c0.3,0,0.3,0,0.6,0c0.2,0,0.2,0,0.3,0c0.1,0,0.1,0,0.3,0c0.2,0,0.3,0,0.4,0c0.1,0,0.1,0,0.2,0
		c0.3,0,0.3,0,0.6,0c0.1,0,0.1,0,0.2,0c0.1,0,0.2-0.1,0.4-0.1c0.1,0,0.2,0,0.2,0c0.1,0,0.2,0.1,0.4,0.1c0.2,0,0.3,0,0.4,0
		c0.1,0,0.1,0,0.2,0c0.3,0,0.3,0,0.6,0h0.2c0.1,0,0.2,0,0.4,0c0.3,0,0.3,0,0.6,0c0.2,0,0.3,0,0.4,0.1c0.1,0,0.1,0,0.2,0h0.2
		c0.1,0,0.2,0,0.4,0c0.2,0,0.3,0,0.4,0c0,0,0.1,0,0.2,0c0.3,0,0.3,0,0.6,0c0.3,0,0.3,0,0.6,0h0.1c0,0,0,0,0.1,0h0c0,0,0,0,0,0
		c0,0,0,0,0,0c0.1,0,0.1,0,0.2,0h0.1c0.2,0,0.3,0,0.5,0h0.1c0.1,0,0.1,0,0.2,0c0.1,0,0.2,0,0.4,0c0.1,0,0.2,0,0.2,0c0,0,0.1,0,0.1,0
		c0.1,0,0.1,0,0.2,0c0.3,0,0.3,0,0.6,0c0.3,0,0.3,0,0.6,0c0.2,0,0.3,0,0.4,0c0.1,0,0.1,0,0.2,0c0.3,0,0.3,0.1,0.6,0.1
		c0,0,0.1,0,0.1,0h0c0,0,0,0,0.1,0c0,0,0,0,0,0h0c0.1,0,0.2,0,0.3,0c0.1,0,0.1,0,0.2,0c0.1,0,0.2,0,0.2,0h0.1c0,0,0,0,0,0h0.1
		c0.3,0,0.3,0.1,0.6,0.1c0.3,0,0.3-0.1,0.6-0.1c0.3,0,0.3,0.1,0.6,0.1c0.3,0,0.3-0.1,0.6-0.1c0.3,0,0.3,0.1,0.6,0.1
		c0.3,0,0.3,0,0.6,0c0.3,0,0.3,0,0.6,0c0.3,0,0.3,0,0.6,0c0.3,0,0.3-0.1,0.6-0.1c0,0,0.1,0,0.1,0c0.2,0,0.2,0,0.5,0
		c0.2,0,0.3,0,0.4,0c0.1,0,0.1,0,0.2,0c0,0,0.1,0,0.1,0c0,0,0,0,0,0c0.1,0,0.1,0,0.1,0c0,0,0,0,0,0c0,0,0.1,0,0.1,0
		c0.1,0,0.1,0,0.2,0.1c0.1,0.1,0.1,0.2,0.1,0.3c0,0,0,0.1,0,0.1c0,0,0,0.1,0,0.1c0,0.1,0,0.2,0,0.2c0,0,0,0.1,0,0.1
		c0,0.1,0,0.1,0,0.2c0,0.3,0,0.3,0,0.6C62.8,38.3,62.8,38.3,62.8,38.3z"/>
</g>
</svg>
