<?xml version="1.0" encoding="utf-8"?>
<!-- Generator: Adobe Illustrator 19.1.0, SVG Export Plug-In . SVG Version: 6.00 Build 0)  -->
<svg version="1.1" id="Layer_1" xmlns="http://www.w3.org/2000/svg" xmlns:xlink="http://www.w3.org/1999/xlink" x="0px" y="0px"
	 viewBox="0 0 16.4 20.2" style="enable-background:new 0 0 16.4 20.2;" xml:space="preserve">
<style type="text/css">
	.st0{fill:#668E3D;}
</style>
<g>
	<g>
		<path class="st0" d="M3.8,5.3c0,0,0,0.1-0.1,0.2c0,0.1-0.1,0.1-0.1,0.2C3.5,5.7,3.4,5.8,3.4,5.9C3.3,6.1,3.1,6.4,3,6.7
			C2.9,6.8,2.9,7,2.8,7.2C2.7,7.3,2.6,7.5,2.6,7.7C2,9.3,1.4,11.6,1.3,14.6v0c-0.1,0.3-0.2,0.6-0.3,1c-0.2,0.5-0.3,1-0.4,1.5
			c-0.1,0.5-0.2,1-0.2,1.4c-0.1,0.4-0.1,0.8-0.1,1s0,0.4,0,0.4l2-0.2c0,0,0-0.1,0-0.3c0-0.2-0.1-0.5-0.1-0.8c0-0.3,0-0.7,0-1.2
			c0-0.4,0.1-0.9,0.1-1.4c0-0.3,0.1-0.6,0.2-0.9c0.2,0,0.4,0.1,0.6,0.1c0,0,0.1,0,0.1,0C14.4,17.4,16.2,0.5,16.2,0.5
			C10.1-0.9,5.6,2.4,3.8,5.3z M2.1,9.2c0-0.1,0-0.2,0-0.2l0,0C2.1,9.1,2.1,9.2,2.1,9.2z M8.6,5.8C8,6.4,7.3,7.1,6.6,8c0,0,0,0,0,0
			c-1.2,1.4-2.4,3.3-3.3,5.4c-0.1,0-0.1,0-0.1,0c-0.2,0-0.4-0.1-0.6-0.2c0,0,0,0,0,0c0.2-2,1.1-4,2.4-5.5c0.4-0.5,0.9-0.9,1.4-1.3
			c1.1-0.8,2.3-1.5,3.6-1.8C9.8,4.7,9.3,5.1,8.6,5.8z"/>
	</g>
</g>
</svg>
