<?xml version="1.0" encoding="utf-8"?>
<!-- Generator: Adobe Illustrator 19.1.0, SVG Export Plug-In . SVG Version: 6.00 Build 0)  -->
<svg version="1.1" id="Layer_1" xmlns="http://www.w3.org/2000/svg" xmlns:xlink="http://www.w3.org/1999/xlink" x="0px" y="0px"
	 viewBox="0 0 27.6 22.7" style="enable-background:new 0 0 27.6 22.7;" xml:space="preserve">
<style type="text/css">
	.st0{fill-rule:evenodd;clip-rule:evenodd;fill:#333333;}
	.st1{fill-rule:evenodd;clip-rule:evenodd;fill:#D02027;}
</style>
<path class="st0" d="M26.8,1.8c-2.4,0.5-3.6,1.3-4.7,3.3c1.2,1.3,0.6,3.5,0.6,3.5c-0.9-1.8-2.3-2.9-4.5-2.7c0,0,1.2-1.8,2.9-1.4
	c1.1-2.3,2.9-3.7,5.4-4.2c0.4-0.1,0.8,0.1,0.9,0.5C27.6,1.2,27.3,1.7,26.8,1.8z"/>
<path class="st1" d="M18.9,10.1c-0.2-0.1-0.6-0.4-1.4,0c-0.8,0.4-2,2.1-2,2.1c-3.9,5.7-6.7,6.8-7.9,7.2c0,0-0.5-0.1-0.5-0.1
	c1.2-0.8,3.6-3,4.6-4.4c1.1-1.5,3.4-4.7,4.6-5.9c0.6-0.5,1.3-0.6,1.9-0.6c0.8,0,1.4,0.9,0.9,1.6C19,10.1,18.9,10.1,18.9,10.1z
	 M18.2,7c-4.5-0.9-6.4,6.1-10.6,10c-2.4,2.2-4.9,3.2-6.7,3.6c-0.7,0.2-0.8,1.3,0,1.4c1.3,0.3,3.2,0.5,6,0.2
	c3.4-0.4,18.3-6.7,15-12.8C21.1,8.4,20,7.4,18.2,7z"/>
</svg>
