<?xml version="1.0" encoding="utf-8"?>
<!-- Generator: Adobe Illustrator 19.1.0, SVG Export Plug-In . SVG Version: 6.00 Build 0)  -->
<svg version="1.1" id="Layer_1" xmlns="http://www.w3.org/2000/svg" xmlns:xlink="http://www.w3.org/1999/xlink" x="0px" y="0px"
	 viewBox="0 0 53.8 23.4" style="enable-background:new 0 0 53.8 23.4;" xml:space="preserve">
<style type="text/css">
	.st0{fill-rule:evenodd;clip-rule:evenodd;fill:#333333;}
	.st1{fill-rule:evenodd;clip-rule:evenodd;fill:#D02027;}
	.st2{fill:#668E3D;}
</style>
<path class="st0" d="M27.2,2.2c-2.4,0.5-3.6,1.3-4.7,3.3c1.2,1.3,0.6,3.5,0.6,3.5c-0.9-1.8-2.3-2.9-4.5-2.7c0,0,1.2-1.8,2.9-1.4
	c1.1-2.3,2.9-3.7,5.4-4.2c0.4-0.1,0.8,0.1,0.9,0.5C28,1.5,27.7,2.1,27.2,2.2z"/>
<path class="st1" d="M19.3,10.5c-0.2-0.1-0.6-0.4-1.4,0c-0.8,0.4-2,2.1-2,2.1c-3.9,5.7-6.7,6.8-7.9,7.2c0,0-0.5-0.1-0.5-0.1
	c1.2-0.8,3.6-3,4.6-4.4c1.1-1.5,3.4-4.7,4.6-5.9c0.6-0.5,1.3-0.6,1.9-0.6c0.8,0,1.4,0.9,0.9,1.6C19.4,10.5,19.4,10.5,19.3,10.5z
	 M18.6,7.4c-4.5-0.9-6.4,6.1-10.6,10C5.6,19.5,3,20.5,1.2,21c-0.7,0.2-0.8,1.3,0,1.4c1.3,0.3,3.2,0.5,6,0.2
	c3.4-0.4,18.3-6.7,15-12.8C21.6,8.7,20.5,7.7,18.6,7.4z"/>
<g>
	<g>
		<path class="st2" d="M40.7,5.9c0,0,0,0.1-0.1,0.2c0,0.1-0.1,0.1-0.1,0.2c-0.1,0.1-0.1,0.2-0.2,0.3C40.2,6.8,40.1,7,40,7.3
			c-0.1,0.1-0.1,0.3-0.2,0.5c-0.1,0.2-0.1,0.3-0.2,0.5c-0.6,1.6-1.2,3.9-1.3,6.9v0c-0.1,0.3-0.2,0.6-0.3,1c-0.2,0.5-0.3,1-0.4,1.5
			c-0.1,0.5-0.2,1-0.2,1.4c-0.1,0.4-0.1,0.8-0.1,1s0,0.4,0,0.4l2-0.2c0,0,0-0.1,0-0.3c0-0.2-0.1-0.5-0.1-0.8c0-0.3,0-0.7,0-1.2
			c0-0.4,0.1-0.9,0.1-1.4c0-0.3,0.1-0.6,0.2-0.9c0.2,0,0.4,0.1,0.6,0.1c0,0,0.1,0,0.1,0C51.4,18,53.2,1.1,53.2,1.1
			C47.1-0.3,42.5,3.1,40.7,5.9z M39.1,9.9c0-0.1,0-0.2,0-0.2l0,0C39.1,9.8,39.1,9.8,39.1,9.9z M45.6,6.4c-0.6,0.6-1.3,1.3-2,2.2
			c0,0,0,0,0,0c-1.2,1.4-2.4,3.3-3.3,5.4c-0.1,0-0.1,0-0.1,0c-0.2,0-0.4-0.1-0.6-0.2c0,0,0,0,0,0c0.2-2,1.1-4,2.4-5.5
			c0.4-0.5,0.9-0.9,1.4-1.3c1.1-0.8,2.3-1.5,3.6-1.8C46.8,5.3,46.3,5.7,45.6,6.4z"/>
	</g>
</g>
</svg>
