<?xml version="1.0" encoding="utf-8"?>
<!-- Generator: Adobe Illustrator 19.1.0, SVG Export Plug-In . SVG Version: 6.00 Build 0)  -->
<svg version="1.1" id="Layer_1" xmlns="http://www.w3.org/2000/svg" xmlns:xlink="http://www.w3.org/1999/xlink" x="0px" y="0px"
	 viewBox="0 0 261.5 65.2" style="enable-background:new 0 0 261.5 65.2;" xml:space="preserve">
<style type="text/css">
	.st0{fill:#010101;}
</style>
<g>
	<path class="st0" d="M6,19.1v15.2H2.1V0.7h11.5v3.1H6v12.3h7v3.1H6z"/>
	<path class="st0" d="M19,34.4V0.7h6c2.4,0,4.2,0.8,5.5,2.3c1.3,1.5,2,4.2,2,8.1v0.2c0,4.9-1.2,8-3.6,9.3l4,13.8h-3.9l-3.8-12.9
		h-2.4v12.9H19z M28.6,11.8v-1.4c0-2.5-0.3-4.2-1-5.1c-0.7-1-1.6-1.4-2.7-1.4h-2.1v14.7h2.1C27.4,18.5,28.6,16.3,28.6,11.8z"/>
	<path class="st0" d="M43.2,19.1v12.2h8.4v3.1H39.3V0.7h12.1v3.1h-8.2v12.3h7.5v3.1H43.2z"/>
	<path class="st0" d="M62.3,19.1v12.2h8.4v3.1H58.4V0.7h12.1v3.1h-8.2v12.3h7.5v3.1H62.3z"/>
	<path class="st0" d="M98.8,34.4V19.1h-7.3v15.2h-3.8V0.7h3.8v15.3h7.3V0.7h3.8v33.7H98.8z"/>
	<path class="st0" d="M110.5,34.4V0.7h3.8v33.7H110.5z"/>
	<path class="st0" d="M128.6,19.6v-3.1h7.6v17.8h-2.4l-0.7-3.1c-1,2.6-2.7,3.9-5.2,3.9c-2,0-3.6-0.8-4.7-2.3
		c-1.1-1.6-1.7-4.4-1.7-8.4V11c0-4.2,0.6-7.1,1.9-8.7c1.3-1.6,3-2.4,5.2-2.4c2.2,0,3.8,0.6,5,1.7c1.1,1.1,1.8,3.1,2.1,6l-3.5,0.9
		c-0.2-2.1-0.6-3.5-1.1-4.3c-0.5-0.8-1.3-1.2-2.4-1.2c-1,0-1.9,0.5-2.5,1.5c-0.6,1-0.9,2.9-0.9,5.6v14.9c0,2.6,0.3,4.4,0.9,5.4
		c0.6,1,1.4,1.5,2.5,1.5c2.4,0,3.7-2.2,3.8-6.5v-5.9H128.6z"/>
	<path class="st0" d="M154.8,34.4V19.1h-7.3v15.2h-3.8V0.7h3.8v15.3h7.3V0.7h3.8v33.7H154.8z"/>
	<path class="st0" d="M180.5,19.1v15.2h-3.8V0.7h11.5v3.1h-7.7v12.3h7v3.1H180.5z"/>
	<path class="st0" d="M194,34.4V0.7h3.8v33.7H194z"/>
	<path class="st0" d="M207.3,0.7l4.8,28.1L217,0.7h3.8l-6.3,33.7h-4.8l-6.3-33.7H207.3z"/>
	<path class="st0" d="M230.3,19.1v12.2h8.4v3.1h-12.2V0.7h12.1v3.1h-8.2v12.3h7.5v3.1H230.3z"/>
	<path class="st0" d="M255.8,26.8c0-2.6-0.9-4.5-2.6-5.9l-3.8-2.8c-2.9-2.1-4.3-5.1-4.3-9.1c0-3.3,0.6-5.7,1.9-7c1.3-1.3,3-2,5.2-2
		c2.2,0,3.9,0.6,5.1,1.9s2,3.5,2.2,6.7l-3.7,0.8c-0.1-4.1-1.3-6.2-3.6-6.2s-3.4,1.7-3.4,5.2c0,1.5,0.2,2.8,0.5,3.8s1,1.8,1.9,2.6
		l3.8,2.8c0.9,0.6,1.6,1.3,2.2,1.8c0.5,0.6,1.1,1.5,1.6,2.8c0.5,1.3,0.7,2.8,0.7,4.5c0,3.1-0.7,5.2-2,6.5c-1.3,1.3-3.1,1.9-5.4,1.9
		c-2.3,0-4.1-0.7-5.3-2.2c-1.3-1.5-2.1-4.1-2.4-7.9l3.6-0.6c0.1,2.7,0.5,4.7,1.2,5.8c0.7,1.2,1.6,1.7,2.8,1.7
		C254.6,31.9,255.8,30.2,255.8,26.8z"/>
</g>
<g>
	<path class="st0" d="M28.4,59.4l0.3,1.7c0.5,0.3,1.2,0.4,1.9,0.4c0.7,0,1.2-0.1,1.7-0.4c0.5-0.3,0.7-0.7,0.7-1.2
		c0-0.4-0.2-0.7-0.5-0.9c-0.3-0.3-0.7-0.5-1.2-0.6c-0.5-0.1-1-0.3-1.6-0.6c-0.6-0.2-1.1-0.5-1.6-0.8c-0.5-0.3-0.9-0.7-1.2-1.3
		c-0.3-0.6-0.5-1.2-0.5-2c0-1.3,0.5-2.4,1.4-3.1c0.9-0.7,2.1-1.1,3.6-1.1c0.7,0,1.4,0.1,2.1,0.2c0.7,0.1,1.3,0.3,1.7,0.4l0.6,0.2
		l-0.1,3.6h-1.8l-0.5-1.7c-0.6-0.2-1.2-0.3-1.7-0.3c-0.7,0-1.2,0.1-1.6,0.4c-0.4,0.3-0.5,0.6-0.5,1c0,0.4,0.2,0.7,0.5,0.9
		c0.3,0.3,0.7,0.5,1.2,0.6s1,0.3,1.6,0.6c0.6,0.2,1.1,0.5,1.6,0.8c0.5,0.3,0.9,0.7,1.2,1.2c0.3,0.5,0.5,1.2,0.5,1.9
		c0,1.4-0.5,2.6-1.5,3.4c-1,0.8-2.3,1.2-3.9,1.2c-0.7,0-1.4-0.1-2.1-0.2c-0.7-0.1-1.3-0.3-1.7-0.4l-0.6-0.2v-3.8H28.4z"/>
	<path class="st0" d="M48.8,52.1v3.3h4v2.2h-4v3.8h3.5l0.5-1.6h1.8v4H44.2V62l1.5-0.5v-9.4l-1.5-0.6v-1.6l4.6-0.1h5.6v3.8h-1.8
		L52,52.1H48.8z"/>
	<path class="st0" d="M68.3,62v1.7h-6V62l1.5-0.5v-9.4l-1.5-0.6v-1.6l4.6-0.1h1.5c1.7,0,2.9,0.3,3.8,1c0.9,0.7,1.3,1.7,1.3,3
		c0,1.8-0.7,3-2.2,3.7c0.3,0.4,0.6,0.8,0.8,1.3l1.3,2.7l1.3,0.5v1.7h-3.7L69.4,60c-0.4-0.8-0.6-1.3-0.8-1.5
		c-0.2-0.2-0.6-0.3-1.1-0.3h-0.7v3.3L68.3,62z M66.8,52.1v4.1H68c0.8,0,1.4-0.2,1.8-0.5c0.4-0.4,0.7-0.9,0.7-1.5
		c0-0.6-0.2-1.1-0.5-1.4c-0.4-0.4-0.8-0.5-1.4-0.5H66.8z"/>
	<path class="st0" d="M86.4,63.7l-4-11.7l-1.3-0.6v-1.6l6.1-0.1v1.7L85.7,52l1.8,5.7l0.6,2.4l0.6-2.3l2-5.8l-1.5-0.6v-1.6l5.9-0.1
		v1.7l-1.4,0.6l-4.2,11.6H86.4z"/>
	<path class="st0" d="M107,52.1v3.3h4v2.2h-4v3.8h3.5l0.5-1.6h1.8v4h-10.4V62l1.5-0.5v-9.4l-1.5-0.6v-1.6l4.6-0.1h5.6v3.8h-1.8
		l-0.5-1.5H107z"/>
	<path class="st0" d="M120.7,63.7V62l1.5-0.5v-9.4l-1.5-0.6v-1.6l4.6-0.1h1.9c2,0,3.6,0.6,4.7,1.7c1.1,1.2,1.6,2.8,1.6,5.1
		c0,2.2-0.6,4-1.8,5.3c-1.2,1.3-2.8,1.9-4.8,1.9H120.7z M125.3,52.1v9.3h1.6c1,0,1.8-0.4,2.4-1.1c0.6-0.7,0.8-2,0.8-3.7
		c0-1.6-0.3-2.8-0.8-3.5c-0.5-0.7-1.3-1.1-2.3-1.1H125.3z"/>
	<path class="st0" d="M151.8,63.7V62l1.5-0.5v-9.4l-1.5-0.6v-1.6l4.6-0.1h1.9c2,0,3.6,0.6,4.7,1.7c1.1,1.2,1.6,2.8,1.6,5.1
		c0,2.2-0.6,4-1.8,5.3c-1.2,1.3-2.8,1.9-4.8,1.9H151.8z M156.3,52.1v9.3h1.6c1,0,1.8-0.4,2.4-1.1c0.6-0.7,0.8-2,0.8-3.7
		c0-1.6-0.3-2.8-0.8-3.5c-0.5-0.7-1.3-1.1-2.3-1.1H156.3z"/>
	<path class="st0" d="M180.4,49.7l4.3,11.8l1.4,0.5v1.7h-6.3V62l1.5-0.5l-0.5-1.5h-4.4l-0.5,1.5l1.5,0.5v1.7h-6V62l1.4-0.5l4.4-11.7
		L180.4,49.7z M178.6,53.2l-1.6,4.7h3.1L178.6,53.2z"/>
	<path class="st0" d="M199,62v1.7h-6V62l1.5-0.5v-9.4l-1.5-0.6v-1.6l6-0.1v1.7l-1.5,0.6v9.4L199,62z"/>
	<path class="st0" d="M210.8,52.1v9.3h3l0.4-2.2h1.9v4.6h-9.9V62l1.5-0.5v-9.4l-1.5-0.6v-1.6l6-0.1v1.7L210.8,52.1z"/>
	<path class="st0" d="M231.9,62v1.7h-6V62l1.5-0.5v-2.6l-3.6-6.9l-1.3-0.5v-1.6l5.6-0.1v1.7l-1,0.4l2,4.3l2.1-4.3l-1.1-0.4v-1.6
		l5.4-0.1v1.7L234,52l-3.6,6.8v2.6L231.9,62z"/>
</g>
</svg>
