<?xml version="1.0" encoding="utf-8"?>
<!-- Generator: Adobe Illustrator 19.1.0, SVG Export Plug-In . SVG Version: 6.00 Build 0)  -->
<svg version="1.1" id="Layer_1" xmlns="http://www.w3.org/2000/svg" xmlns:xlink="http://www.w3.org/1999/xlink" x="0px" y="0px"
	 viewBox="-118 128.6 263.2 244.4" style="enable-background:new -118 128.6 263.2 244.4;" xml:space="preserve">
<style type="text/css">
	.st0{fill:#FFFFFF;}
	.st1{fill:none;}
</style>
<path class="st0" d="M-45.1,156.4v1.9l-6,0.9v-1.9c0.3-0.2,0.8-0.4,1.4-0.8l0.2-10.3l-1.4-0.5v-1.8l4.3-0.7l5.2-0.7v4.1l-1.7,0.2
	l-0.4-1.5l-3,0.4l-0.1,3.9l3.8-0.6v2.4l-3.8,0.6l-0.1,4.1C-45.8,156.3-45.2,156.4-45.1,156.4z"/>
<path class="st0" d="M-26.6,140.4l3.7,12.2l1.3,0.3v1.9l-5.9,0.8v-1.9l1.4-0.7l-0.4-1.5l-4.1,0.6l-0.5,1.7l1.4,0.3v1.9l-5.6,0.9V155
	l1.4-0.7l4.4-13.3L-26.6,140.4z M-28.4,144.4l-1.6,5.3l2.9-0.4L-28.4,144.4z"/>
<path class="st0" d="M-9.5,151v1.8l-5.6,0.9v-1.8l1.4-0.7l0.2-10.1l-1.4-0.4v-1.8l4.3-0.7l1.4-0.2c1.5-0.2,2.7,0,3.6,0.6
	c0.8,0.6,1.2,1.6,1.2,3c0,1.9-0.8,3.3-2.2,4.3c0.3,0.4,0.6,0.8,0.8,1.3l1.2,2.7l1.3,0.3v1.8l-3.4,0.5l-1.5-3.7
	c-0.3-0.8-0.6-1.3-0.8-1.5c-0.2-0.2-0.5-0.3-1-0.2l-0.6,0.1l-0.1,3.5L-9.5,151z M-10.6,140.6l-0.1,4.3l1.1-0.2
	c0.7-0.1,1.3-0.4,1.7-0.8c0.4-0.4,0.6-1,0.6-1.7c0-0.6-0.1-1.1-0.5-1.5c-0.3-0.3-0.8-0.5-1.3-0.4L-10.6,140.6z"/>
<path class="st0" d="M8.4,148.3v1.8l-5.3,0.8v-1.8l1.4-0.7l0.2-9.9l-1.4-0.4v-1.7l4.8-0.8l2.6,6.5l3.1-7.2l4.5-0.7v1.8l-1.3,0.8
	l-0.2,9.8l1.4,0.3v1.8l-5.5,0.8v-1.8l1.5-0.7l0.2-7.9c-0.2,0.7-0.5,1.4-0.8,2.1c-0.3,0.7-0.6,1.6-1,2.4c-0.4,0.9-0.7,1.6-0.9,2.1
	l-2,0.4l-2-4.6l-0.3-1l-0.2,7.6L8.4,148.3z"/>
<path class="st0" d="M31.1,147.9v-1.3l1.1-0.5l0.1-7l-1.3,0.2l-0.4,1.4l-1.2,0.2l0.1-3.1l7.8-1.1l-0.1,3.1L36,140l-0.3-1.3l-1.3,0.2
	l-0.1,7l1.1,0.2v1.3L31.1,147.9z"/>
<path class="st0" d="M46.6,135.2c1.3-0.2,2.4,0.1,3.1,0.9c0.7,0.8,1.1,2,1,3.6c0,1.6-0.5,3-1.3,4.1c-0.8,1.1-1.9,1.8-3.3,2
	c-1.3,0.2-2.4-0.1-3-0.9c-0.7-0.8-1-2-1-3.7c0-1.7,0.5-3,1.3-4.1C44.2,136,45.3,135.4,46.6,135.2z M46.5,137c-0.7,0.1-1.2,0.4-1.6,1
	c-0.4,0.6-0.6,1.5-0.6,2.8c0,1.2,0.1,2,0.4,2.6c0.3,0.5,0.8,0.7,1.5,0.6c0.7-0.1,1.2-0.5,1.6-1.1c0.4-0.6,0.6-1.5,0.6-2.8
	c0-1.2-0.1-2-0.5-2.5C47.7,137.1,47.2,136.9,46.5,137z"/>
<path class="st0" d="M-63.7,182.5v-1.7l1.5-0.7v-9.2l-1.8,0.2l-0.5,1.9l-1.7,0.3v-4.1l10.6-1.8v4.2l-1.7,0.3l-0.5-1.8l-1.7,0.3v9.2
	l1.5,0.2v1.7L-63.7,182.5z"/>
<path class="st0" d="M-41.4,165.1l3.9,10.7l1.3,0.2v1.7l-5.8,1V177l1.4-0.7L-41,175l-4.1,0.7l-0.5,1.5l1.4,0.2v1.7l-5.5,1v-1.7
	l1.3-0.7l4-12L-41.4,165.1z M-43,168.8l-1.5,4.8l2.8-0.5L-43,168.8z"/>
<path class="st0" d="M-25.6,162.6l1.9-0.3c1.2-0.2,2.2-0.1,2.9,0.3c0.7,0.4,1.1,1.2,1.1,2.3c0,1.6-0.7,2.7-2.2,3.5
	c1.7,0.2,2.6,1.1,2.6,2.6c0,2.6-1.6,4.2-4.7,4.7l-5.8,1v-1.6c0.3-0.2,0.8-0.4,1.4-0.7v-9l-1.4-0.3v-1.6L-25.6,162.6z M-25.6,164.8
	v3.2l1.1-0.2c1.4-0.2,2-0.9,2-2.1c0-0.5-0.1-0.8-0.4-1c-0.3-0.2-0.7-0.3-1.1-0.2L-25.6,164.8z M-24.5,169.8l-1.1,0.2v3.7l1.5-0.3
	c0.6-0.1,1.1-0.3,1.5-0.7c0.3-0.4,0.5-0.8,0.5-1.3c0-0.7-0.2-1.1-0.6-1.4C-23.1,169.7-23.7,169.7-24.5,169.8z"/>
<path class="st0" d="M-8.2,161.9v8.7l2.8-0.5l0.4-2.2l1.7-0.3v4.3l-9.1,1.6v-1.6l1.4-0.7v-8.9l-1.4-0.3v-1.5l5.6-1v1.6L-8.2,161.9z"
	/>
<path class="st0" d="M7.6,159.3v3.1l3.7-0.6v2l-3.7,0.6v3.5l3.2-0.6l0.4-1.6l1.7-0.3v3.7l-9.5,1.7v-1.6l1.4-0.7v-8.7l-1.4-0.3V158
	l4.2-0.8l5.1-0.8v3.5l-1.7,0.3l-0.5-1.3L7.6,159.3z"/>
<g>
	<path class="st1" d="M-4.3,224.2c0,0.8,0.1,1.6,0.1,2.5c0,0.7,0.2,0.9,0.3,0.9c0.1,0,0.4-0.1,0.9-0.8c0.5-0.6,1-1.2,1.5-1.8
		c1.7-2,3.4-4.1,5-6.2c0.6-0.8,0.9-1.7,0.9-2.6c0-1.3-0.7-2.3-1.7-2.5c-0.7-0.2-1.5,0-2.4,0.3c-0.4,0.1-0.7,0.2-1,0.2
		c-3.6,0.8-4,0.9-4,3.3l0,0c0,0.4,0,0.9,0,1.5C-4.5,220.8-4.4,222.5-4.3,224.2z"/>
	<path class="st1" d="M19.7,178.7c0.2-0.2,0.4-0.4,0.7-0.6l1.3-1.1l2-1.6l2-1.5c0.3-0.2,0.5-0.4,0.8-0.5l0.2-0.2
		c0.2-0.1,0.4-0.3,0.7-0.4c0.5-0.3,0.9-0.6,1.4-0.9c0.3-0.2,0.5-0.3,0.8-0.5c0.4-0.3,0.9-0.5,1.3-0.8l2.5-1.3
		c1.3-0.6,2.7-1.2,4.1-1.7l1.1-0.4c0.2-0.1,0.5-0.1,0.7-0.2c0.1,0,0.3-0.1,0.4-0.1l2.2-0.6l2.7-0.5c0.3,0,0.5-0.1,0.8-0.1l3.3-0.4
		l3.4-0.2h3.4l2.2,0.1c0.7,0,1.5,0.1,2.2,0.1c0.7,0.1,1.5,0.1,2.2,0.2l5,0.6c0.5,0.1,1,0.1,1.5,0.2c1.6,0.3,2.9,0.5,4.3,0.8
		c1.5,0.3,2.9,0.6,4.2,1c1.7,0.4,3,0.8,4.1,1.2v0.3l0.1-0.2c1,0.2,2.2,0.5,3.5,0.7c1.2,0.2,2.3,0.4,3.5,0.7c1.2,0.2,2.3,0.4,3.5,0.6
		c1.2,0.2,2.3,0.3,3.5,0.5h0.1c1.2,0.2,2.3,0.3,3.5,0.4l0.6,0.1c1,0.1,2,0.2,3,0.3c0.8,0.1,1.6,0.1,2.3,0.2c0.4,0,0.9,0.1,1.3,0.1
		c0.6,0,1.2,0,1.8,0.1c0.2,0,0.3,0,0.5,0v0.5l0,0l1,58.4l1-58.9h1.2c0.6,0,1.2-0.1,1.8-0.1l0.9-0.1l1.2-0.1c0.2,0,0.4,0,0.6-0.1
		l1.1-0.2c0.5-0.1,1.1-0.2,1.6-0.4c0.2-0.1,0.5-0.1,0.7-0.2c0.4-0.1,0.8-0.2,1.1-0.3c0.2-0.1,0.5-0.1,0.7-0.2
		c0.4-0.1,0.8-0.2,1.1-0.4l0.5-0.2c0.4-0.2,0.8-0.3,1.2-0.5c0.6-0.3,1.2-0.5,1.7-0.8c0.6-0.3,1.1-0.6,1.7-0.9
		c0.2-0.1,0.4-0.2,0.6-0.3c0.3-0.2,0.7-0.4,1-0.6c0.2-0.1,0.4-0.3,0.6-0.4c0.3-0.2,0.7-0.4,1-0.6c0.2-0.1,0.4-0.3,0.6-0.4
		c0.3-0.2,0.6-0.4,0.9-0.6c-0.5,0.3-1,0.6-1.5,0.9c-0.4,0.2-0.7,0.4-1.1,0.6c-0.2,0.1-0.4,0.2-0.5,0.3c-0.6,0.3-1.1,0.5-1.7,0.8
		c-0.6,0.2-1.1,0.5-1.7,0.7c-0.6,0.2-1.2,0.4-1.7,0.6c-0.4,0.1-0.8,0.3-1.1,0.4l-0.6,0.2c-0.4,0.1-0.8,0.2-1.1,0.3
		c-0.2,0.1-0.4,0.1-0.6,0.2c-0.4,0.1-0.8,0.2-1.2,0.3c-0.2,0-0.4,0.1-0.6,0.1c-0.5,0.1-1.1,0.2-1.6,0.3l-1.1,0.2c-0.2,0-0.4,0-0.5,0
		s-0.2,0-0.4,0H114h-0.5c-0.6,0-1.2,0-1.8,0s-1.2-0.1-1.8-0.1c-0.5,0-1.1-0.1-1.8-0.1c-0.6,0-1.2-0.1-1.8-0.1
		c-0.4,0-0.9-0.1-1.3-0.1c-0.7-0.1-1.5-0.1-2.2-0.2c-0.6-0.1-1.2-0.1-1.8-0.2c-0.6-0.1-1.2-0.2-1.8-0.2c-1-0.1-2-0.3-3.1-0.4
		l-0.4-0.1c-1.2-0.2-2.3-0.4-3.5-0.6s-2.3-0.4-3.5-0.6c-1.1-0.2-2.3-0.4-3.4-0.7c-1.3-0.3-2.4-0.5-3.3-0.7c-1.3-0.4-2.6-0.8-4.2-1.2
		c-1.5-0.4-2.9-0.7-4.3-1c-1.5-0.3-3-0.6-4.4-0.8c-0.5-0.1-1-0.2-1.6-0.2l-1.7-0.2l-3.3-0.3l-2.2-0.1c-0.8-0.1-1.6-0.1-2.3-0.1h-2.3
		l-3.4,0.1l-3.5,0.3c-0.8,0.1-1.6,0.2-2.3,0.3l-1.2,0.2c-0.3,0-0.5,0.1-0.7,0.2c-0.1,0-0.3,0.1-0.4,0.1l-2.9,0.7l-1.8,0.5
		c-0.1,0-0.3,0.1-0.4,0.1c-0.2,0.1-0.5,0.1-0.7,0.2l-1.2,0.5c-1.4,0.5-2.7,1.2-4,1.8l-0.6,0.3l-2.2,1.3c-0.5,0.3-0.9,0.6-1.4,0.9
		c-0.3,0.2-0.5,0.3-0.8,0.5c-0.5,0.3-1.1,0.7-1.6,1.1l-0.5,0.4c-0.1,0.1-0.3,0.2-0.4,0.3c-0.2,0.1-0.4,0.3-0.6,0.5l-2,1.6l-1.9,1.7
		l-0.9,0.9c-0.1,0.1-0.3,0.3-0.4,0.4c-0.2,0.2-0.3,0.3-0.5,0.5l-0.9,0.9c-0.1,0.1-0.3,0.3-0.4,0.4c0.1-0.1,0.3-0.3,0.4-0.4
		L19.7,178.7z"/>
	<path class="st1" d="M83.1,295.1c0-0.3,0-0.6,0-0.9v-0.3c0-0.7,0.1-1.5,0-2.2c-0.6-4.9-1.8-9.8-5.8-12.6c-1-0.7-2.1-1-3.2-1
		c-0.5,0-1,0.1-1.6,0.2c-2,0.5-3.9,2-5.3,4.1c-1.5,2.1-2.5,4.1-3.1,6.1c-2.3,7.9-2.5,15.4-0.6,22.3c0.9,3.3,3.9,5.6,7.1,5.6
		c0.6,0,1.2-0.1,1.7-0.2c4-1,7.7-5.1,9.2-10.2C82.8,301.9,83.3,298.3,83.1,295.1z"/>
	<path class="st1" d="M30.2,310.4c0-0.4,0-0.7,0-1v-0.2c0-0.7,0.1-1.5,0-2.2c-0.6-4.9-1.8-9.8-5.8-12.5c-0.9-0.6-1.9-0.9-3-0.9
		c-0.6,0-1.2,0.1-1.8,0.3c-2,0.6-3.9,2.2-5.3,4.4c-1.5,2.2-2.5,4.3-3.1,6.3c-2.3,8.1-2.5,15.7-0.6,22.6c0.9,3.3,3.7,5.5,6.9,5.5
		c0.7,0,1.3-0.1,2-0.3c4-1.2,7.7-5.5,9.2-10.8C29.9,317.3,30.4,313.6,30.2,310.4z"/>
	<path class="st1" d="M129.6,276.6c-1.5-5-4-7.1-8.5-7.1c-1.1,0-2.4,0.1-3.8,0.4c-1.5,0.3-1.9,0.6-1.8,2.1c0,5.3,0,10.7,0,15.7
		c0,1.1,0,2.2,0,3.4v3.5l-0.3,0.1v2.1c0,2.8,0,5.5,0,8.3v0.2c0,0.3,0,0.6,0,0.7l0,0c0,0,0.2,0,0.4,0h0.2c6.8-1.3,12.9-6.8,14.2-12.9
		C131.2,287.1,131.1,281.7,129.6,276.6z"/>
	<path class="st0" d="M-55.1,270.5c-0.8-7.3-3.4-14.3-7.8-21.3c-2.2-3.4-4.3-6.8-6.5-10.3c-5.1-8-10.3-16.3-15.5-24.6
		c-0.8-1.3-1.7-3-1.6-5c0-2.3,1-3.9,2.9-4.7c2-0.8,3.9-0.3,5.2,1.4c1,1.3,1.5,3,1.5,5.1c0,0.7,0.1,1.2,0.3,1.4
		c0.3,0.3,0.9,0.2,1.7-0.1c3.3-1.6,6.7-3.6,9.9-6c0.6-0.4,0.9-0.8,1-1.2c0-0.3-0.1-0.5-0.3-0.8c-0.8-1.1-1.6-2.2-2.5-3.3
		c-1.2-1.6-2.4-3.2-3.6-4.8c-3.5-4.4-8.2-6-13.9-4.6c-6.3,1.5-10.7,5.3-13.1,11.5c-2.9,7.5-0.1,14,3,19.4c2.9,4.9,5.9,9.6,8.9,14.3
		c0.7,1.1,1.4,2.2,2.1,3.3c0.5,0.8,1,1.6,1.5,2.4c4.1,6.4,8.4,13.1,11.3,20.4c1.5,3.9,3.1,9.1,1.8,14.9c-1.8,7.7-5,12.5-10.3,15.3
		c-2.8,1.5-5.9,2.3-9,2.3c-7.9,0-13.7-5.2-14.9-13.2c-1-6.7,0.6-12.5,4.5-17.2c1.7-2,3.8-2.7,5.8-1.9s3,2.5,2.9,4.8
		c-0.1,2.5-1.5,4.2-3.9,4.7c-0.6,0.1-1.1,0.4-1.3,0.8c-0.2,0.3-0.2,0.8,0,1.4c0.9,2.9,2,6,3.5,8.8c0.9,1.8,1.7,1.8,3,0.2
		c1-1.2,2.2-2.4,3.6-3.6c3.3-2.9,5.3-6.6,5.9-10.8c0.9-6.1-1-10.9-5.5-14.4c-2.6-2-5.4-3-8.3-3c-2,0-4,0.5-6,1.3
		c-5.7,2.5-9.9,6.1-12.5,10.7c-5.8,10.2-5.6,20.6,0.5,31.1c5.4,9.2,13.4,13.3,19,13.3l0,0c0.2,0,0.5,0,0.7,0
		c17-1.4,28.6-9.8,34.3-25.2C-55.2,279.2-54.6,274.9-55.1,270.5z M-60,275.8c-0.3,4.1-1.6,8.2-3.7,11.8c-1,1.7-2.3,3.5-3.8,5.1
		l-1.1,1.1c-0.2,0.3-0.5,0.5-0.8,0.7c-0.1,0.1-0.3,0.2-0.4,0.4l-1.2,1l-1.2,0.9c-1.9,1.4-3.5,2.5-5.2,3.4c-1.9,1-3.8,1.8-5.6,2.4
		c-2.2,0.7-4.4,1-6.6,1c-1.7,0-3.4-0.2-5-0.6c-1.8-0.5-3.6-1.1-5.2-2.1c-0.9-0.5-1.6-1-2.3-1.5c-0.4-0.3-0.7-0.6-1.1-0.9
		c-0.4-0.3-0.7-0.7-0.9-1l-0.1-0.1c-2.4-2.8-4.2-5.9-5.3-9.3c-0.6-1.7-1-3.5-1.2-5.1c-0.2-1.7-0.2-3.5,0-5.2
		c0.2-1.6,0.5-3.3,1.1-4.9c0.3-0.8,0.5-1.5,0.8-2.2c0.2-0.5,0.4-1,0.6-1.5c0.1-0.2,0.2-0.5,0.3-0.7c1.5-3.4,3.1-5.8,5-7.8
		c2.1-2.3,4.9-3.9,7.6-4.3c0.3,0,0.7-0.1,1-0.1h0.5h0.2c0.1,0,0.2,0,0.4,0c0.8,0.1,1.4,0.3,1.9,0.5c1.2,0.4,2.3,1,3.2,1.6
		c2.1,1.3,3.5,3,4.2,4.9c0.3,1,0.5,2,0.5,3c0,0.1,0,0.3,0,0.4s0,0.2,0,0.3l-0.1,0.7c0,0.2-0.1,0.4-0.1,0.7l-0.1,0.3
		c0,0.1-0.1,0.2-0.1,0.3c-0.6,1.8-1.5,3.1-2.2,4.2l-0.2,0.3c-0.1,0.2-0.2,0.3-0.3,0.5l-0.7,0.9c-0.1,0.2-0.2,0.3-0.4,0.4l-0.5,0.5
		c-0.5,0.6-1,1-1.3,1.4l-0.1,0.1c-0.2,0.2-0.4,0.3-0.4,0.4l-0.4-0.3c0.1-0.1,0.1-0.2,0.3-0.3l0.3-0.3c0.3-0.3,0.7-0.8,1.2-1.4
		c0.2-0.2,0.3-0.4,0.5-0.6c0.1-0.1,0.2-0.2,0.3-0.4l0.9-1.2c0.1-0.2,0.2-0.4,0.4-0.5c0.6-1,1.4-2.4,1.9-4c0-0.1,0.1-0.2,0.1-0.4
		l0.1-0.2l0.2-1.2c0-0.1,0-0.2,0-0.3s0-0.2,0-0.4c0-0.9-0.2-1.7-0.5-2.5c-0.6-1.6-2-3-3.9-4.1c-0.9-0.5-1.9-1-3-1.3
		c-0.4-0.1-1-0.3-1.6-0.4c-0.1,0-0.2,0-0.3,0h-0.1h-0.4c-0.3,0-0.6,0.1-0.9,0.1c-2.3,0.5-4.6,1.8-6.4,3.9c-1.6,1.8-3.1,4.2-4.4,7.3
		c-0.1,0.3-0.2,0.5-0.3,0.8c-0.2,0.4-0.3,0.8-0.5,1.3l-0.3,0.9c-0.1,0.4-0.3,0.9-0.4,1.3c-0.4,1.5-0.7,3-0.9,4.4
		c-0.6,5.9,1.7,12.4,6.2,17.5c0.3,0.3,0.6,0.6,0.8,0.8c0.3,0.3,0.6,0.5,0.9,0.7c0.6,0.5,1.3,0.9,2.1,1.3c1.5,0.8,3,1.4,4.6,1.8
		c3.2,0.8,6.7,0.6,10.1-0.4c1.6-0.5,3.3-1.2,5-2.1c1.5-0.8,3-1.8,4.7-3.1l1.4-1.2l0.2,0.1l-0.2-0.2l0.7-0.6c0.1-0.1,0.3-0.2,0.4-0.4
		c0.2-0.2,0.4-0.4,0.6-0.6l1-1c1.3-1.4,2.5-3,3.4-4.5c1.8-3.1,3-6.7,3.3-10.4c0.3-3.3-0.1-6.8-1.1-10.4c-0.5-1.6-1-3.3-1.7-4.8
		c-0.3-0.7-0.7-1.5-1.1-2.2c-0.4-0.7-0.9-1.5-1.3-2.2c-1-1.8-2-3.5-3-5.2l-2.1-3.6c-2.9-4.9-5.8-10.1-9.6-16.8
		c-2.6-4.7-5.7-10.3-8.4-15.4c-1.1-2.1-2.4-5-2.3-8c0-0.6,0.1-1.1,0.2-1.7l0.1-0.4l0.1-0.3c0.2-0.6,0.3-1.2,0.6-1.7
		c0.6-1.3,1.5-2.4,2.5-3.1c1-0.8,2.1-1.4,3.2-1.8c0.1,0,0.2-0.1,0.3-0.1c0.2-0.1,0.4-0.1,0.6-0.2c0.2,0,0.4-0.1,0.7-0.2l0.9-0.2
		c0.3,0,0.5-0.1,0.7-0.1c0.4,0,0.7-0.1,1.1-0.1c1.5,0,3,0.4,4.4,1.1c1.2,0.6,2.3,1.5,3.4,2.6c0.7,0.8,1.3,1.6,1.9,2.5
		c0.3,0.6,0.7,1.1,0.9,1.7c0.1,0.3,0.2,0.5,0.3,0.6l-0.5,0.2c-0.1-0.1-0.2-0.3-0.3-0.5c-0.2-0.4-0.5-1-1-1.6
		c-0.6-0.9-1.2-1.6-1.9-2.3c-1.1-1-2.1-1.8-3.3-2.3c-1.5-0.7-3.2-0.9-4.9-0.7h-0.1c-0.2,0-0.4,0.1-0.7,0.1l-0.7,0.2l-0.7,0.2
		c-0.2,0-0.3,0.1-0.5,0.2c-0.1,0-0.2,0.1-0.2,0.1c-0.9,0.3-1.8,0.9-2.7,1.6c-0.8,0.7-1.4,1.6-1.9,2.7c-0.2,0.4-0.3,0.8-0.4,1.3
		l-0.1,0.4c0,0.1,0,0.3,0,0.4c-0.1,0.4-0.1,0.9-0.1,1.3c0,0.4,0,0.8,0.1,1.3c0,0.2,0.1,0.4,0.1,0.5c0,0.2,0.1,0.4,0.1,0.6l0.2,0.8
		c0,0.1,0.1,0.1,0.1,0.2s0.1,0.1,0.1,0.2c0.1,0.2,0.2,0.5,0.3,0.7l0.1,0.2c0.1,0.2,0.2,0.4,0.2,0.5c0.1,0.1,0.1,0.2,0.2,0.3
		c0,0.1,0.1,0.2,0.1,0.3c0.1,0.2,0.2,0.4,0.3,0.6l0.5,0.9c1.4,2.6,2.9,5.2,4.2,7.3c1.5,2.5,3,5.1,4.6,7.8c2.8,4.8,6.1,10.2,9.9,16.6
		l1.4,2.3c1.3,2.1,2.6,4.2,3.9,6.4c0.4,0.6,0.7,1.2,1.1,1.8l0.3,0.4c0.5,0.7,0.8,1.5,1.3,2.4c0.7,1.6,1.4,3.3,1.9,5.1
		C-60.1,268.3-59.7,272.1-60,275.8z"/>
	<path class="st0" d="M-59.3,226.6c2.3-1.5,4.7-1.8,7.1-2.2c0.9-0.1,1.9-0.3,2.8-0.5c0.4-0.1,0.7-0.1,1-0.1c0.6,0,1,0.1,1.3,0.5
		c0.4,0.4,0.6,1,0.6,2c-0.1,8.5-0.1,17.2-0.1,25.5c0,4.1,0,8.2,0,12.4c0,0.2,0,0.3,0,0.5c0,1,0,2-0.6,3s-0.6,1.5-0.5,1.8
		c0.2,0.3,0.6,0.3,1,0.3c0.2,0,0.5,0,0.8-0.1c3.4-0.5,7-1.2,11.2-2.2c0.7-0.2,1.2-0.4,1.3-0.8c0.1-0.4-0.2-0.9-0.4-1.2
		c-0.9-1.1-0.9-2.5-0.9-3.9c0-4.6,0-9.2,0-13.7v-4.6h0.1v-4.1c0-5.1,0-10.1,0-15.2c0-0.1,0-0.3,0-0.4c0-1.1,0-2.5,1.7-2.9
		c0.7-0.1,1.3-0.3,2-0.4c2.2-0.5,4.5-0.9,6.7-0.9c1,0,1.9,0.1,2.7,0.3c0.1,0,0.3,0.1,0.4,0.1c0.2,0.1,0.3,0.1,0.5,0.1
		c0.1,0,0.3,0,0.5-0.2c0.3-0.4,0.3-0.7,0.1-1.2c0-0.1,0-0.2-0.1-0.2c-0.2-0.7-0.3-1.4-0.5-2.1c-0.4-1.8-0.9-3.7-1.2-5.6
		c-0.4-2-1.6-2.7-3.8-2.3c-10.4,2-20.2,3.7-29.6,5.3c-1.7,0.3-2.6,0.9-2.9,2.1c-0.7,3-1.4,6.3-2.3,10.3c-0.1,0.4,0,0.7,0.1,0.9
		C-60.2,226.9-60.1,227.1-59.3,226.6z M-54.7,218.4c0,0,0.5-0.2,1.3-0.5c0.9-0.3,2.1-0.7,3.3-1c1.4-0.4,3-0.8,4.7-1.2
		c0.9-0.2,1.8-0.4,2.7-0.6c0.8-0.2,1.7-0.3,2.5-0.5l0.5-0.1c0.8-0.1,1.7-0.3,2.5-0.4c0.9-0.1,1.8-0.3,2.7-0.4
		c1.6-0.2,3.2-0.4,4.7-0.5c1.3-0.1,2.5-0.2,3.3-0.2c0.3,0,0.5,0,0.7,0c0,0,0.4,0,0.6,0l0,0l0,0c0,0,0,0,0.1,0l2.1,0.5h-2.1
		c-0.2,0.1-0.6,0.3-1.2,0.5c-0.7,0.3-1.9,0.7-3.3,1.2c-1.5,0.5-3.1,0.9-4.7,1.3h-0.1c-0.8,0.2-1.7,0.4-2.6,0.6
		c-0.6,0.1-1.1,0.2-1.7,0.3l-1.5,46.7h-0.5l-1-46.2c-0.3,0-0.5,0.1-0.8,0.1c-0.8,0.1-1.6,0.2-2.7,0.4c-1.6,0.2-3.2,0.3-4.7,0.4
		c-1.3,0.1-2.5,0.1-3.3,0.1c-0.7,0-1.2,0-1.3,0l-1.1-0.1L-54.7,218.4z"/>
	<path class="st0" d="M8.9,186.1c1.5,1.7,3.2,3.4,5,4.7c0.6,0.5,1.1,0.7,1.5,0.7c0.7,0,1.3-0.6,2-2c2.6-5.1,7-9.3,13.3-12.9
		c8-4.5,16.4-6.8,25.2-6.8c3.1,0,6.3,0.3,9.5,0.8s6.4,1.1,9.5,1.7c8.2,1.5,16.7,3.1,25.3,4c2.5,0.3,3,1.6,3,3.9
		c-0.1,11.7-0.1,26.7-0.1,41.2c0,7.7,0,15-0.1,21.3c0,2-0.1,3.9-1,5.7c-0.3,0.7-0.3,1-0.2,1.2s0.5,0.2,0.8,0.2c0.1,0,0.3,0,0.4,0
		l2.1-0.2c1.2-0.1,2.4-0.3,3.5-0.4h0.3v0.1c1-0.1,2-0.2,3-0.3l1.6-0.2c1-0.1,2.1-0.2,2.4-0.7c0.2-0.4,0-1-0.5-1.8
		c-0.4-0.6-0.4-1.5-0.4-2.4c0-0.2,0-0.3,0-0.5c0-5.7,0-12.2,0-19c0-15,0-32,0-44.7c0-2.4,1-2.9,3.1-3.2c4.7-0.7,8.6-1.6,12.4-4
		c3.8-2.4,7.2-5.2,10.5-7.9c0.7-0.6,1.5-1.2,2.2-1.8c0.4-0.3,0.6-0.6,0.6-0.9c0-0.3-0.2-0.6-0.7-1l-0.1-0.3
		c-1.3-1.1-2.6-2.2-3.9-3.3c-0.3-0.3-0.7-0.6-1-0.9c-0.7-0.7-1.5-1.5-2.2-1.5h-0.1c-0.8,0-1.1,0.7-1.5,1.8c-0.2,0.6-0.4,1.2-0.7,1.6
		c-4.7,5.8-11.1,8.8-19.6,9c-10.7,0.3-20.8-2.1-28.3-4.2c-10.7-3-19.7-4.3-28.7-4.3c-3.4,0-6.8,0.2-10.1,0.6
		c-7.3,0.9-14.5,3.6-21.4,8c-4.9,3.2-9,7.5-12.9,11.6c-1.4,1.5-2.8,3-4.2,4.4c-0.9,0.8-0.7,1.4-0.2,1.9L8.9,186.1z M16.6,181.1
		l0.5-0.5c0.4-0.5,0.9-0.9,1.3-1.4l0.9-0.9c0.2-0.2,0.3-0.3,0.5-0.5c0.1-0.1,0.3-0.3,0.4-0.4l0.9-0.9l1.9-1.7l2-1.6
		c0.2-0.2,0.4-0.3,0.6-0.5c0.1-0.1,0.3-0.2,0.4-0.3l0.5-0.4c0.5-0.4,1-0.8,1.6-1.1c0.3-0.2,0.5-0.3,0.8-0.5c0.5-0.3,0.9-0.6,1.4-0.9
		l2.2-1.3l0.6-0.3c1.3-0.7,2.6-1.3,4-1.8l1.2-0.5c0.3-0.1,0.5-0.2,0.8-0.3c0.1,0,0.3-0.1,0.4-0.1l2.7-0.8l2-0.4
		c0.1,0,0.3-0.1,0.4-0.1c0.3-0.1,0.5-0.1,0.8-0.2l1.2-0.2c0.8-0.1,1.6-0.2,2.4-0.3l3.5-0.3l3.5-0.1h2.3c0.7,0,1.5,0,2.3,0.1l2.3,0.1
		l3.5,0.4l1.6,0.2c0.5,0.1,1.1,0.1,1.6,0.2c1.4,0.2,2.9,0.5,4.4,0.8c1.4,0.3,2.8,0.6,4.3,1c1.6,0.4,2.9,0.8,4.2,1.2
		c1,0.2,2,0.5,3.4,0.7c1.1,0.2,2.3,0.5,3.4,0.7c1.1,0.2,2.3,0.4,3.4,0.6c1.1,0.2,2.3,0.4,3.5,0.6l0.4,0.1c1,0.2,2,0.3,3.1,0.4
		c0.6,0.1,1.2,0.2,1.8,0.2c0.6,0.1,1.2,0.1,1.8,0.2c0.7,0.1,1.5,0.2,2.2,0.2c0.4,0,0.9,0.1,1.3,0.1c0.6,0,1.2,0.1,1.8,0.1
		c0.7,0.1,1.2,0.1,1.8,0.1s1.2,0.1,1.8,0.1s1.2,0,1.8,0h0.5l1.3-0.1c0.1,0,0.2,0,0.4,0s0.3,0,0.5,0l1.1-0.2c0.5-0.1,1.1-0.1,1.6-0.3
		c0.2,0,0.4-0.1,0.6-0.1c0.4-0.1,0.8-0.1,1.1-0.3c0.2-0.1,0.4-0.1,0.6-0.2c0.4-0.1,0.7-0.2,1.1-0.3l0.6-0.2c0.4-0.1,0.7-0.2,1.1-0.4
		c0.6-0.2,1.1-0.4,1.7-0.6c0.6-0.2,1.1-0.5,1.7-0.7c0.5-0.3,1.1-0.5,1.6-0.8c0.2-0.1,0.4-0.2,0.5-0.3c0.4-0.2,0.7-0.4,1.1-0.6
		c0.9-0.5,2-1.2,3.1-2c0.9-0.6,1.9-1.4,2.8-2.3l0.4,0.3c-0.8,1-1.8,1.9-2.7,2.6l-1.5,1.2c-0.3,0.2-0.6,0.5-1,0.7
		c-0.2,0.1-0.4,0.3-0.6,0.4c-0.3,0.2-0.7,0.4-1,0.6c-0.2,0.1-0.4,0.3-0.6,0.4c-0.3,0.2-0.7,0.4-1,0.6c-0.2,0.1-0.4,0.2-0.6,0.3
		c-0.6,0.3-1.1,0.6-1.7,0.9c-0.6,0.3-1.2,0.5-1.7,0.8c-0.4,0.2-0.8,0.3-1.2,0.5l-0.5,0.2c-0.4,0.1-0.8,0.3-1.2,0.4
		c-0.2,0.1-0.4,0.1-0.7,0.2c-0.4,0.1-0.8,0.2-1.2,0.3c-0.2,0.1-0.4,0.1-0.7,0.2c-0.6,0.2-1.1,0.3-1.7,0.4l-1.1,0.2
		c-0.3,0-0.5,0.1-0.7,0.1l-2.2,0.2c-0.6,0-1.2,0.1-1.8,0.1h-0.7l-1.3,72.6h-0.5l-1.3-72.7c-0.6,0-1.2-0.1-1.8-0.1
		c-0.4,0-0.9-0.1-1.3-0.1c-0.8,0-1.6-0.1-2.4-0.2c-1-0.1-2-0.2-3-0.3l-0.6-0.1c-1.2-0.1-2.3-0.3-3.5-0.4h-0.1
		c-1.2-0.2-2.4-0.3-3.6-0.5c-1.2-0.2-2.4-0.4-3.5-0.6c-1.2-0.2-2.3-0.4-3.5-0.7c-1.3-0.3-2.4-0.5-3.5-0.7h-0.1
		c-1.2-0.4-2.5-0.7-4.1-1.2c-1.3-0.3-2.7-0.6-4.2-1c-1.3-0.3-2.7-0.5-4.3-0.8c-0.5-0.1-1-0.2-1.5-0.2l-1.7-0.2l-3.3-0.4
		c-0.7-0.1-1.5-0.1-2.2-0.2s-1.5-0.1-2.2-0.1l-2.2-0.1h-3.3l-3.3,0.2l-3.3,0.4c-0.2,0-0.5,0.1-0.8,0.1c-0.1,0-0.3,0-0.4,0.1
		l-3.4,0.7l-1.1,0.3c-0.2,0-0.3,0.1-0.5,0.1c-0.2,0.1-0.4,0.1-0.7,0.2l-1.1,0.4c-1.4,0.5-2.7,1.1-4,1.7l-0.4,0.2l-2.1,1.1
		c-0.4,0.2-0.9,0.5-1.3,0.8c-0.3,0.2-0.5,0.3-0.8,0.5c-0.5,0.3-1,0.6-1.4,0.9c-0.2,0.1-0.4,0.3-0.7,0.4l-0.2,0.2
		c-0.3,0.2-0.5,0.3-0.8,0.5l-3,2.3l-1,0.8l-1.3,1.1c-0.2,0.2-0.4,0.4-0.6,0.6l-0.9,0.9c-0.5,0.4-0.9,0.9-1.4,1.3l-0.5,0.5
		c-1,1-2.3,2.3-3.5,3.7l-0.4-0.3C14.3,183.8,15.3,182.6,16.6,181.1z"/>
	<path class="st0" d="M74.7,201.7c0-1.9,0.8-2.8,2.7-3c1.3-0.2,2.6-0.3,3.9-0.5c3.2-0.4,6.6-0.9,9.9-1.2c0.6-0.1,1.3,0.1,1.9,0.3
		l0.3,0.1c0.1,0,0.2,0.1,0.3,0.1c0.4,0.1,0.8,0.2,1.1,0c0.5-0.4,0.4-1,0.3-1.6v-0.1c-0.2-0.9-0.4-1.8-0.6-2.6
		c-0.3-1.2-0.5-2.5-0.8-3.7c-0.6-3.1-0.9-3.7-2.9-3.7c-0.6,0-1.3,0.1-1.9,0.1c-1.7,0.2-3.5,0.5-5.2,0.9c-1.6,0.4-3.3,0.7-5,0.9
		c-4.6,0.5-9.3,1.4-13.8,2.3c-0.8,0.2-1.7,0.3-2.5,0.5c-1,0.2-1.6,0.5-1.8,0.9c-0.1,0.2,0,0.5,0.2,0.9c1.9,3.1,1.9,6.9,1.9,10.6v0.1
		c0,3.9-0.1,7.9-0.2,11.8c-0.1,3.5-0.2,7.1-0.2,10.6c0,1.8,0.1,3.6,0.2,5.3c0.2,2.5,0.3,5,0.1,7.6c0,0.6-0.1,1.2-0.1,1.8
		c-0.1,2-0.2,4-1,6c-0.4,0.9-0.8,1.9-0.7,2.1c0,0,0.1,0.1,0.3,0.1l0,0c0.4,0,1-0.1,1.7-0.2l1.1-0.2c3.9-0.7,8-1.5,11.9-2.2
		c4.3-0.7,8.9-1.5,13.6-2.2c1.9-0.3,2.9-1.2,3.2-2.9l0.2-1.2c0.4-2.7,0.9-5.4,1.9-8.1c0.4-1.1,0.1-1.4-0.2-1.5
		c-0.4-0.2-0.9,0.1-1.4,0.4c-0.1,0.1-0.2,0.1-0.3,0.2l-0.5,0.3c-1.1,0.7-2.1,1.5-3.4,1.7c-1.2,0.2-2.4,0.4-3.6,0.6
		c-3,0.5-6.1,1-9.2,1.6c-0.8,0.1-1.3,0-1.6-0.3c-0.3-0.3-0.4-0.8-0.4-1.5c0.2-2.9,0.3-5.9,0.4-8.7c0-0.8,0.1-2.2,1.6-2.5
		c0.3-0.1,0.6-0.1,1-0.2c0.8-0.2,1.6-0.4,2.4-0.4c0.9,0,1.6,0.3,2.2,0.8c0.3,0.3,0.6,0.4,0.9,0.4c0.5,0,0.7-0.7,0.9-1.2
		c1-4.4,1.9-8.3,2.6-11.9c0.1-0.6,0.1-1.1-0.1-1.3c-0.1-0.1-0.2-0.2-0.4-0.2s-0.6,0.1-1.1,0.5c-2,1.4-4.1,1.8-6.1,2.1
		c-0.7,0.1-1.3,0.2-2,0.4c-0.9,0.2-1.5,0.1-1.8-0.3c-0.3-0.3-0.4-0.9-0.4-1.6C74.6,206.2,74.7,203.9,74.7,201.7z M69.2,200.7
		l0.1,11.5v3.1c0,0.1,0,0.1,0,0.2c3.7-0.3,7.4-0.5,10.9-0.7l2.3-0.1l-2.2,0.6c-3.5,1-7.2,2-11,3.1v6.7c0,1.4,0,2.9,0,4.3l-0.1,5.8
		c0,1.1,0,2.3-0.1,3.4v1.1c1.3-0.2,2.6-0.4,3.9-0.6l0.7-0.1c1.4-0.2,2.9-0.4,4.4-0.6l1.3-0.2c1.2-0.1,2.5-0.3,3.8-0.4
		c1.5-0.2,3.1-0.3,5.1-0.5l0.1,0.5l-0.6,0.1c-1.5,0.3-3,0.7-4.5,1c-0.9,0.2-1.9,0.4-2.8,0.6c-0.8,0.2-1.6,0.3-2.3,0.5
		c-0.9,0.2-1.8,0.4-2.6,0.6s-1.7,0.3-2.5,0.5c-1.7,0.4-3.4,0.7-5.1,1.1l-1.2,0.3v-1.3c0-0.8,0-1.6-0.1-2.3c0-1.1-0.1-2.3-0.1-3.4
		l-0.1-5.7c0-1.7,0-3.5,0-5.2v-6.3c0-0.6,0-1.2,0-1.8l0.1-10.9l0.1-4.6c0-1.9,0.1-3.8,0.1-5.6V194l2.7-0.4c1.3-0.2,2.7-0.4,4-0.6
		c1.8-0.3,3.7-0.5,5.5-0.7l0.7-0.1c1.6-0.2,3.2-0.4,4.8-0.5c1.8-0.2,3.7-0.4,5.5-0.5l0.1,0.5c-1.8,0.4-3.7,0.8-5.5,1.2
		c-0.9,0.2-1.8,0.4-2.7,0.6c-1,0.2-1.9,0.4-2.9,0.6c-1.8,0.4-3.7,0.8-5.5,1.2c-0.9,0.2-1.8,0.4-2.7,0.6l-1.6,0.3
		C69.1,197.6,69.2,199.1,69.2,200.7z"/>
	<path class="st0" d="M47.1,263.1c-0.5,0-1.3,0.3-2.5,0.8c-0.5,0.2-1.1,0.3-1.7,0.5h-0.2c-2.7,0.6-5.1,0.9-7.3,0.9
		c-5,0-8.8-1.6-11.5-4.9c-1.3-2.4-3.9-7.4-5.8-11.1l-1.3-2.9c-2.5-5.6-5-11.4-7.6-17c-0.8-1.6-0.6-2.8,0.8-4.4
		c2.7-3.4,5.6-7.4,6.6-12.1c0.7-3.5,0.2-6.7-1.4-8.7c-1.5-1.9-3.8-2.6-6.6-2.2c-7.5,1.2-15.7,3.1-25.8,5.9c-0.7,0.2-1.1,0.5-1.2,0.8
		c-0.1,0.3,0,0.6,0.3,1c0.6,0.8,1,1.8,1,3.1c0,1.6,0.1,3.3,0.2,4.9c0.2,3.6,0.3,7.4,0.2,11.2c-0.3,6.9-0.3,13.8-0.4,20.5
		c0,2.7,0,5.5-0.1,8.2c0,1.8-0.1,3.8-0.9,5.8c-0.4,0.9-0.3,1.2-0.2,1.4c0.1,0.2,0.6,0.3,1.3,0.1c1.2-0.3,2.5-0.5,3.7-0.6
		c1.8-0.2,3.7-0.5,5.5-1.2l0.5-0.2c2.9-1,2.9-1,2.3-3.7c-0.1-0.7-0.1-1.4-0.1-2.1c0-1,0-2,0-3c0.1-2.1,0.1-4.2-0.1-6.2
		c-0.3-3.2,0.8-6,3.5-9c0.7-0.8,1.3-1.3,1.8-1.3c0.6,0,1,0.7,1.2,1.4c1.4,3.9,3,7.7,4.4,11.5l1,2.5c2.5,6.3,5.8,13.4,11.5,18.8
		c3.3,3.1,7.1,4.4,12.5,4.4c1.9,0,4-0.2,6.7-0.5c2.3-0.3,5.1-0.7,7.6-0.6h0.1c1.5,0,2-0.6,2.1-2.1c0.2-2.5,0.2-4.9,0.2-7.2
		c0-1.3,0-2.3-0.3-2.5C47.3,263.2,47.3,263.1,47.1,263.1z M42.8,270.1h-0.2c-0.5,0.1-1.2,0.3-2.1,0.4h-0.3c-0.4,0.1-0.9,0.2-1.4,0.2
		c-0.2,0-0.3,0-0.5,0.1c-0.5,0.1-0.9,0.1-1.4,0.1c-0.2,0-0.4,0-0.7,0h-0.4c-0.2,0-0.4,0-0.7,0c-0.2,0-0.3,0-0.5,0
		c-0.1,0-0.3,0-0.4,0c-0.4,0-0.8,0-1.2,0c-0.2,0-0.5,0-0.7,0c-1.8-0.2-3.6-0.5-5.1-1c-1.8-0.5-3.5-1.3-5.1-2.4
		c-1.7-1.1-3.2-2.4-4.5-3.9c-1.4-1.6-2.5-3.4-3.3-5.3c-0.5-1.1-1-2.3-1.5-3.4c-0.3-0.7-0.7-1.5-1-2.2c-0.8-1.9-1.6-3.7-2.4-5.5
		l-4.2-9.7c-1.6-3.7-2.9-6.6-3.6-8.2c-0.1,0.2-0.3,0.3-0.4,0.5c-0.9,1-1.8,1.9-2.8,2.8l-0.2,0.2c-1.2,1.2-2.2,2.1-3.1,2.9
		c-2.1,1.9-4.1,3.6-5.9,5l-0.1,2.2c0,1.4-0.1,2.8-0.1,4.2l-0.1,1.9c-0.1,1.4-0.1,2.9-0.2,4.3c-0.1,1.9-0.2,3.9-0.3,5.8v0.4h-0.5
		c-0.1-2-0.2-4-0.3-6c-0.1-1.4-0.1-2.8-0.2-4.2l-0.1-1.9c-0.1-1.3-0.1-2.6-0.1-3.9c0-0.7,0-1.4-0.1-2.1c-0.1-2-0.1-4-0.2-6.1
		l-0.3-18.3v-7.6l1.5-0.3c1.1-0.2,2.3-0.5,3.4-0.7c1.4-0.3,2.7-0.6,4.1-0.9c2.5-0.5,5-1.1,7.5-1.6l0.6-0.1c0.2,0,0.4,0,0.6-0.1
		c0.4,0,0.7-0.1,1-0.1h0.1c0.8,0,1.3,0,1.9,0.1c1.6,0.3,2.8,0.9,3.7,1.8l0.1,0.1c0.2,0.2,0.4,0.5,0.5,0.8l0.2,0.5
		c0.1,0.1,0.1,0.3,0.1,0.4c0,0.1,0,0.1,0,0.2L12,210c0,0.1,0,0.3,0,0.4s0,0.1,0,0.2l0.1,0.6v0.1v0.1v0.3c0,0.5-0.2,1.4-0.4,2.2
		c0,0.1-0.1,0.3-0.1,0.4c-0.1,0.2-0.1,0.5-0.2,0.7l-0.4,1c-1.3,2.9-3.1,5.5-4.5,7.4c-0.8,1.1-1.7,2.1-2.7,3.3l0,0
		c0.4,0.9,1.7,4.5,3.6,9.4L12,248c0.5,1.2,0.9,2.4,1.4,3.6c0.3,0.7,0.6,1.5,0.9,2.2c0.5,1.2,0.9,2.4,1.4,3.6
		c0.7,1.8,1.7,3.5,2.9,5.1c1.1,1.4,2.5,2.7,4,3.9c1.4,1,3,1.8,4.7,2.4c1.5,0.5,3.1,0.9,4.8,1.1c0.2,0,0.4,0,0.6,0.1
		c0.6,0.1,1.1,0.1,1.6,0.1h0.4c0.2,0,0.4,0,0.6,0h0.1c0.3,0,0.7,0,1,0c0.5,0,0.9,0,1.4-0.1c0.2,0,0.3,0,0.5,0c0.5,0,1-0.1,1.4-0.2
		h0.2c0.7-0.1,1.4-0.2,1.8-0.3l0.4-0.1c0.5-0.1,0.8-0.2,0.8-0.2l0.1,0.5C43.6,269.9,43.3,270,42.8,270.1z"/>
	<path class="st0" d="M0.2,228.9c1-1.1,1.8-2.2,2.6-3.2c0.9-1.1,1.7-2.2,2.4-3.3c0.9-1.2,1.6-2.3,2.2-3.4c0.7-1.3,1.3-2.4,1.7-3.5
		l0.3-0.9c0.1-0.2,0.1-0.4,0.2-0.6l0.1-0.3c0.1-0.2,0.1-0.3,0.1-0.5c0-0.1,0-0.2,0-0.3c0-0.2,0.1-0.4,0.1-0.6v-0.5v-0.5
		c0,0,0-0.1,0-0.2s0-0.1,0-0.2l-0.1-0.3v-0.1c0-0.1,0-0.1,0-0.1l-0.2-0.3c-0.1-0.1-0.1-0.2-0.2-0.3l-0.1-0.1c-0.5-0.5-1.3-0.9-2.4-1
		c-0.4-0.1-0.9-0.1-1.4-0.1H5.3c-0.3,0-0.5,0-0.8,0.1H4.1L4,208.5l0.1,0.2l-0.3,0.1c-2.5,0.6-5,1.1-7.5,1.7c-1.7,0.4-3.3,0.7-5,1.1
		l-1.1,0.2l-0.2,10.9l-0.2,12.3c0,1.8-0.1,3.5-0.1,5.1c0.7-0.7,1.5-1.4,2.1-2.1c0.9-0.9,1.8-1.9,2.9-3C-3.4,233-1.5,230.9,0.2,228.9
		z M-0.8,213.8c0.4-0.1,0.7-0.2,1-0.2c0.9-0.2,1.8-0.4,2.6-0.3c1.2,0.3,2,1.5,2,3c0,1-0.4,2.1-1,2.9c-1.6,2.1-3.3,4.2-5,6.2
		c-0.5,0.6-1,1.2-1.5,1.8c-0.5,0.6-1,0.9-1.3,0.9c-0.5,0-0.8-0.5-0.8-1.4c0-0.8-0.1-1.6-0.1-2.4c-0.1-1.7-0.2-3.4-0.3-5.1
		c0-0.6,0-1.1,0-1.5C-5.1,214.7-4.4,214.6-0.8,213.8z"/>
	<path class="st0" d="M45,205.1c2.3-0.4,4.6-0.8,6.9-1.2c0.8-0.1,1.6-0.1,2.3,0.2c0.8,0.3,1.3,0.3,1.6,0c0.2-0.3,0.3-0.9,0.2-1.6
		c-0.4-2.3-0.9-4.7-1.3-6.9l-0.3-1.5c-0.2-1-0.8-1.4-1.8-1.3c-0.3,0-0.6,0-0.9,0.1c-0.9,0.1-1.7,0.1-2.6,0.3
		c-4.3,1.1-8.6,1.9-12.8,2.7c-3.8,0.7-7.8,1.5-11.7,2.5c-1.6,0.4-2.4,0.6-2.6,1.1c-0.2,0.4,0.1,1.1,0.7,2.4c0.2,0.5,0.3,1,0.4,1.6
		l0.1,0.4c0.6,2.9,0.6,6,0.6,9c0,0.7,0,1.4,0,2.1c0,2.8-0.1,5.7-0.3,8.5c-0.2,3.8-0.4,7.8-0.1,11.5c0.4,4.9,0.6,10.7-0.1,16.9
		c0,0.1,0,0.2,0,0.3c0.7,1.1,1.6,2.5,2.3,3.7c7.5-1.6,16.1-3.5,24.6-5.3c1.6-0.3,3.2-0.9,3.6-3.1c0.1-0.6,0.2-1.1,0.3-1.7
		c0.5-2.6,0.9-5.3,1.9-8c0.1-0.4,0.3-1-0.2-1.3s-1,0.1-1.5,0.6l-0.1,0.1c-1.7,1.4-3.3,2.3-5.2,2.6c-3.4,0.7-7,1.4-10.7,2.3
		c-1.1,0.3-1.8,0.2-2.2-0.3c-0.3-0.3-0.5-0.9-0.5-1.7c0-1.9,0.1-3.8,0.1-5.6c0-0.9,0-1.9,0-2.8c0-0.7,0-2,1.4-2.4
		c0.3-0.1,0.5-0.2,0.8-0.2c1-0.3,2-0.6,3-0.6c0.8,0,1.5,0.2,2.1,0.7c0.3,0.3,0.6,0.4,0.9,0.4c0.5,0,0.8-0.7,0.9-1.2
		c0.9-3.8,1.9-8,2.7-12c0.1-0.6,0.1-1.1-0.1-1.3c-0.1-0.1-0.2-0.2-0.4-0.2s-0.6,0.1-1.2,0.6c-1.9,1.4-3.9,1.9-5.8,2.3
		c-0.6,0.1-1.2,0.3-1.8,0.4c-1,0.2-1.6,0.2-2-0.3c-0.3-0.3-0.5-0.9-0.4-1.6c0.1-2.1,0.1-4.3,0.1-6.4c-0.1-2,0.8-2.9,2.8-3.3
		C40.6,205.9,42.8,205.5,45,205.1z M34.9,202.9c-1.1,0.3-2.1,0.5-3.2,0.8l-1.1,0.3c0,1.5,0.1,3,0.1,4.6l0.1,8.6v5.7
		c0,0.1,0,0.3,0,0.4c3.6-0.4,7.3-0.8,10.9-1.1L44,222l-2.2,0.7c-3.7,1.2-7.3,2.4-11,3.6v6.2c0,1.6,0,3.2,0,4.8l-0.1,5.8
		c0,1.2,0,2.3-0.1,3.5v1.1c1.3-0.2,2.6-0.5,3.9-0.7l1.2-0.2c1.3-0.2,2.6-0.5,3.9-0.7c0.5-0.1,1.1-0.2,1.6-0.3
		c1.2-0.2,2.4-0.4,3.5-0.6c1.5-0.2,3.2-0.5,5.1-0.7l0.1,0.5c-1.7,0.5-3.4,1-5.1,1.4c-1.1,0.3-2.1,0.6-3.2,0.8
		c-0.7,0.2-1.3,0.3-2,0.5c-1,0.3-2,0.5-3,0.8c-0.7,0.2-1.4,0.4-2.2,0.5c-1.7,0.4-3.4,0.9-5.1,1.3l-1.2,0.3l-0.1-2.8
		c0-1.4-0.1-2.8-0.1-4.2l-0.1-5.7c0-1.5,0-3,0-4.5v-7c0-0.6,0-1.2,0-1.8c0-0.4,0-0.7,0-1.1l0.1-10.6L28,209c0-1.8,0.1-3.7,0.1-5.8
		V202l1.2-0.2c0.6-0.1,1.3-0.2,1.9-0.4c1.2-0.2,2.4-0.5,3.6-0.7c1.8-0.3,3.7-0.7,5.5-1l1.5-0.3c1.3-0.2,2.7-0.4,4-0.6
		c1.8-0.3,3.7-0.6,5.5-0.8l0.1,0.5c-1.8,0.5-3.7,1-5.5,1.5c-1,0.3-2.1,0.5-3.1,0.8c-0.8,0.2-1.6,0.4-2.4,0.6
		C38.6,201.9,36.7,202.4,34.9,202.9z"/>
	<path class="st0" d="M-23.4,294.3c0.2-2.2,1.3-3.4,3.3-3.9c1.2-0.3,2.4-0.7,3.5-1c1-0.3,2.1-0.7,3.1-0.9c1.4-0.4,2.9-0.8,4.3-1.3
		c3.4-1.1,6.8-2.2,10.2-2.2c0.7,0,1.4,0,2,0.1c0.1,0,0.2,0,0.3,0l0,0c0.4,0,0.6-0.1,0.8-0.3c0.3-0.3,0.3-0.9,0.1-1.7
		c-0.3-1.1-0.6-2.2-0.9-3.3s-0.6-2.1-0.9-3.2C1.6,273.8,1,273-0.5,273c-0.8,0-1.8,0.2-3.4,0.7c-9.7,3-21.1,6.5-32.5,9.8
		c-2.5,0.7-5.2,1.9-8,3.5c-9.2,5.2-14.8,13.3-15.4,22.2c-0.3,3.7,0.9,6.8,2.1,9.8c0.4,1,0.8,2,1.1,3c0.2,0.5,0.5,0.8,0.8,0.8
		c0.5,0,1.2-0.4,1.8-1.1c2.1-2.4,4.2-4.8,6.2-7.2l0.8-0.9c0.6-0.7,0.8-1.2,0.7-1.6c-0.1-0.3-0.3-0.5-0.8-0.6c-2.5-0.8-2.2-3.3-1.8-5
		c1.2-4.8,4.4-8.2,10-10.8c1-0.5,1.7-0.7,2.1-0.7c0.3,0,0.6,0.1,0.8,0.3c0.4,0.4,0.5,1,0.4,2.3c-0.1,1.4-0.2,2.8-0.3,4.1
		c-0.2,1.9-0.3,4-0.3,5.9c-0.1,17.9-0.1,36.1,0,51.9c0,2.7-0.1,5.2-0.9,7.9c-0.3,0.9-0.2,1.3-0.1,1.5c0.2,0.3,0.7,0.3,1.5,0
		c0.7-0.2,1.5-0.4,2.2-0.6c2-0.6,4.1-1.2,6.2-1.9c3.5-1.2,3.6-1.4,2.9-4.7c-0.2-0.8-0.2-1.7-0.3-2.7c0-3.9,0-7.9,0-11.8v-1.8V345
		c0-0.4,0-0.8,0-1.2c0-0.9,0-1.8,0-2.7c0.1-1.6,0-3.3,0-4.9c-0.1-2.9-0.1-5.8,0.4-8.9c0-0.1,0-0.2,0-0.3c0.1-0.9,0.2-2,1.5-2.4
		c0.4-0.1,0.8-0.3,1.2-0.4c1.3-0.5,2.6-1,3.9-1c0.7,0,1.2,0.1,1.8,0.4c1.3,0.7,2.1,0.2,2.6-1.6l0.3-1.1c1-3.5,2-7.2,2.9-10.7
		c0.3-1.1,0.2-1.6,0.1-1.7c0,0-0.1-0.1-0.3-0.1c-0.3,0-0.9,0.2-1.6,0.6c-3.1,1.7-6.2,3-9.7,4c-1.1,0.3-1.8,0.3-2.2-0.2
		c-0.3-0.3-0.5-0.8-0.5-1.6V309C-23.9,304.2-23.8,299.3-23.4,294.3z M-16.2,316.7l0.1,0.5c-4.7,1.8-9,3.5-13.2,5.1l-0.7,41.2h-0.5
		l-1.2-73.9c-0.3,0.1-0.5,0.2-0.8,0.3c-1,0.4-2,0.7-3,1.1c-1.2,0.4-2.1,0.8-3,1.1c-0.5,0.2-1,0.4-1.5,0.6c-0.3,0.1-0.6,0.2-0.9,0.4
		c-0.2,0.1-0.3,0.1-0.5,0.2c-2,0.9-3.7,1.9-5.1,3.1c-1.6,1.3-2.8,2.7-3.7,4.2c-0.8,1.4-1.5,3-1.9,4.6c-0.8,3-0.8,5.6-0.8,7.3
		c0.1,1.7,0.2,2.7,0.2,2.7h-0.2l0,0l0,0l0,0v0.2l0,0c-0.2,0-0.2-0.1-0.4-0.8v-0.1c-0.1-0.4-0.3-1.1-0.5-1.9
		c-0.1-0.7-0.3-1.8-0.4-3.2c-0.1-1.6,0-3,0.3-4.4c0.3-1.9,0.9-3.7,1.8-5.4c1-1.9,2.4-3.8,4.2-5.4c1.6-1.5,3.6-2.8,5.9-3.8
		c0.2-0.1,0.4-0.2,0.5-0.2c0.3-0.2,0.7-0.3,1-0.4c0.5-0.2,1-0.4,1.5-0.6c1-0.4,2-0.8,3.1-1.2c1.1-0.4,2.1-0.8,3.1-1.1
		c1-0.4,2-0.7,3.1-1c2-0.7,4.1-1.3,5.9-1.9c1.7-0.5,3.3-1,4.9-1.4l3.3-0.9l2.4-0.6c2.5-0.6,5-1.2,7.4-1.7c0.6-0.1,1.1-0.2,1.5-0.3
		c0.2,0,0.4-0.1,0.6-0.1l0.7-0.1l0.3-0.1l0.1,0.3c0,0.1,0,0.1-0.2,0.2l0,0h-0.1c-0.4,0.2-1.1,0.4-2.7,1l-1.1,0.4
		c-1.7,0.6-3.8,1.4-6.3,2.2c-1.5,0.5-3.2,1.1-4.9,1.7L-19,285c-1.4,0.5-2.9,1-4.4,1.5l-1.3,0.5c-1.2,0.4-2.5,0.9-3.7,1.3l-0.5,30.8
		C-25.1,318.6-20.8,317.7-16.2,316.7z"/>
	<path class="st0" d="M138.3,265.8c-3-4.3-7.4-6.7-13.2-7c-0.5,0-1.1,0-1.6,0c-2.2,0-4.7,0.2-7.7,0.8c-0.8,0.1-1.7,0.3-2.6,0.5
		c-0.8,0-1.7,0.1-2.6,0.3c-1.5,0.3-3,0.7-4.5,1.1l-0.5,0.1c-1.2,0.3-2.5,0.7-3.7,1c-1.4,0.3-2,0.9-2.2,1.4c-0.3,0.7-0.2,1.4,0.4,2.1
		c1.5,1.8,1.6,4,1.5,6.9c-0.1,4.5-0.1,9-0.2,13.6c0,4.4-0.1,8.3-0.1,12.3c0,1-0.1,2.1-0.1,3.2v1.3c-0.1,3.4-0.2,6.8-0.1,10.2
		c0,0.7-0.1,1.4-0.3,2c-0.5,1.1-0.9,2.3-0.5,2.9c0.2,0.2,0.5,0.4,1,0.4c0.4,0,0.7-0.1,1-0.1c0.3-0.1,0.5-0.1,0.9-0.2
		c2.8-0.8,5.6-1.4,8.2-2l1-0.2c1.7-0.3,3.6-0.7,5.3-1.1c13-3,20.7-9.8,24.9-21.9C145.8,283.7,144.4,274.5,138.3,265.8z M109.7,289.7
		c0,1.2,0,2.4-0.1,3.6c0,1.3-0.1,2.6-0.1,3.9v0.4c0,1.1-0.1,2.2-0.2,3.2v0.8c-0.1,1.1-0.1,2.3-0.2,3.6c-0.2,2.3-0.4,4.2-0.5,5.4
		s-0.2,1.7-0.3,2v0.1l-0.1,0.1l0,0c0,0.1-0.1,0.1-0.2,0.1h-0.2v-0.2c0-0.1-0.1-0.8-0.2-2c-0.1-1-0.3-2.9-0.5-5.2v-0.6
		c-0.1-0.9-0.1-1.9-0.2-2.9v-0.5c-0.1-1.1-0.1-2.3-0.1-3.5s-0.1-2.7-0.1-4.2c0-1.1,0-2.2,0-3.4v-2c0-1.2,0-2.3,0.1-3.4
		c0-1.3,0.1-2.7,0.1-4.3c0-1,0.1-2,0.1-3l0.1-1c0.1-1,0.1-2,0.2-2.9l0.1-0.7c0.1-1.8,0.3-3.5,0.5-5.4c0.2-1.3,0.3-2.1,0.3-2.1h0.4
		h0.1c0,0.2,0.1,0.9,0.2,2c0.2,1.8,0.3,3.5,0.5,5.2v0.4c0.1,1,0.1,2,0.2,3.1v0.4c0.1,1.1,0.1,2.3,0.1,3.6s0.1,2.7,0.1,4.2
		c0,1.4,0,2.9,0,4.4L109.7,289.7z M115.9,306.2h-0.2c-0.2,0-0.4,0.1-0.5,0.1s-0.3,0-0.4-0.1c-0.2-0.2-0.2-0.5-0.2-1V305
		c0-2.8,0-5.5,0-8.3v-2.6l0.3-0.1v-3c0-1.1,0-2.2,0-3.4c0-5,0-10.3,0-15.7c0-1.7,0.5-2.3,2.2-2.6c1.4-0.3,2.7-0.4,3.9-0.4
		c4.8,0,7.5,2.2,9,7.5c1.5,5.2,1.7,10.7,0.4,16.5C129.2,299.3,123.1,304.9,115.9,306.2z M139.3,283.4c0,2.2-0.2,4.1-0.5,6
		c-0.3,2-0.9,3.9-1.7,5.8c-0.7,1.8-1.7,3.5-2.9,5.2c-1,1.5-2.3,2.8-3.7,4c-1.1,1-2.4,1.8-3.8,2.6c-1,0.6-2,1-3.2,1.5
		c-0.9,0.4-1.7,0.5-2.1,0.7c-0.5,0.1-0.7,0.2-0.8,0.2l-0.1-0.5c0,0,1-0.3,2.6-1.2c2.3-1.2,4.3-2.8,6.1-4.5c1.1-1.1,2.1-2.4,3-3.8
		c0.9-1.4,1.6-3,2.3-4.7c0.6-1.7,1-3.5,1.3-5.3c0.3-1.8,0.4-3.7,0.4-5.6c0-0.3,0-0.6,0-0.8c0-0.7,0-1.3-0.1-1.9
		c0-0.9-0.2-1.7-0.3-2.6v-0.1c-0.3-1.9-0.8-3.5-1.3-5c-0.6-1.6-1.4-2.9-2.4-4c-0.9-1.1-2-2.1-3.1-2.8c-2.3-1.5-4.7-2.1-6.2-2.3
		c-1.6-0.2-2.6-0.2-2.7-0.2l0,0l0,0v-0.5l0,0c0,0,0.3-0.1,0.7-0.1c0.5-0.1,1.2-0.2,2.1-0.2h0.1c1.1,0,2.2,0.1,3.2,0.3
		c1.4,0.3,2.8,0.7,3.9,1.3c1.5,0.7,2.8,1.7,3.9,2.9c1.2,1.3,2.2,2.8,3,4.4s1.3,3.4,1.7,5.5l0.1,0.4c0.1,0.8,0.3,1.7,0.3,2.5l0.1,0.7
		c0,0.2,0,0.3,0,0.5v1.6L139.3,283.4z"/>
	<path class="st0" d="M31.1,283c-1.6-0.6-3.4-0.9-5.3-0.9c-1.9,0-4,0.3-6,0.9c-5.2,1.6-10.2,5.1-13.6,9.5
		c-7,9.1-10.2,18.7-10.4,31.2c-0.4,5.4,2,11.5,6.6,16.8c2.4,2.8,6,4.2,10.3,4.2l0,0c2.2,0,4.6-0.4,7-1.2c6.8-2.2,12.9-7,16.7-13.2
		c7.5-12,9.5-23.5,5.9-34.3C40,289.3,36.3,285,31.1,283z M15.8,339.6c-0.1,0-0.3,0-0.7,0.1h-0.2c-0.2,0-0.3,0-0.5,0
		c-0.4,0-0.7,0-1.1,0c-0.3,0-0.6-0.1-0.9-0.1l-0.5-0.1c-0.4-0.1-0.9-0.2-1.5-0.4c-1.1-0.4-2.1-1-3.1-1.7c-1.1-0.9-2.1-1.9-2.9-3
		c-0.9-1.3-1.7-2.7-2.3-4.1c-0.3-0.8-0.6-1.6-0.8-2.5l-0.1-0.4c-0.1-0.3-0.1-0.6-0.2-0.8l-0.1-0.5c-0.1-0.3-0.1-0.6-0.2-0.8
		c-0.3-1.8-0.5-3.7-0.5-5.7s0.2-4,0.5-6c0.3-1.9,0.8-3.9,1.5-6c0.6-1.9,1.4-3.8,2.3-5.5c0.2-0.5,0.4-0.8,0.7-1.3v-0.1
		c0.2-0.4,0.4-0.8,0.7-1.2c0.4-0.7,0.9-1.5,1.5-2.2c0.9-1.3,2-2.5,3.1-3.6c0.8-0.8,1.7-1.6,2.7-2.4c0.8-0.6,1.5-1,1.9-1.2l0.5-0.3
		c0.1,0,0.1-0.1,0.2-0.1l0.3,0.4l-0.6,0.5c-0.4,0.3-0.9,0.8-1.7,1.4c-0.8,0.7-1.5,1.6-2.3,2.5c-0.8,1-1.7,2.2-2.5,3.6
		c-0.3,0.6-0.8,1.3-1.2,2.1c-0.2,0.4-0.4,0.8-0.6,1.1c-0.2,0.4-0.4,0.8-0.5,1.2c-0.7,1.5-1.3,3.2-1.8,5.1s-0.9,3.7-1.2,5.5
		c-0.3,2-0.4,3.8-0.4,5.5s0.1,3.5,0.4,5.3l0.2,1.2c0.1,0.4,0.2,0.8,0.3,1.3c0.2,0.7,0.4,1.4,0.6,2.3c0.5,1.5,1.1,2.9,1.8,4
		c0.7,1.2,1.5,2.2,2.2,3.1c0.8,0.8,1.7,1.5,2.5,2c0.3,0.2,0.5,0.3,0.8,0.4c0.1,0.1,0.3,0.1,0.4,0.2l0.3,0.1c0.3,0.1,0.5,0.2,0.7,0.3
		c0.3,0.1,0.7,0.2,0.9,0.2s0.4,0.1,0.5,0.1s0.2,0,0.2,0c0.4,0.1,0.6,0.1,0.6,0.1l1.4,0.3L15.8,339.6z M19.6,332.8
		c-0.7,0.2-1.4,0.3-2.1,0.3c-3.4,0-6.4-2.4-7.4-5.9c-1.9-7-1.7-14.7,0.6-22.9c0.6-2,1.6-4.1,3.1-6.4s3.5-3.9,5.6-4.6
		c1.9-0.6,3.7-0.3,5.2,0.7c4.2,2.8,5.4,7.9,6,12.9c0.1,0.7,0.1,1.5,0,2.3v0.2c0,0.3,0,0.6,0,1c0.2,3.3-0.3,7-1.6,11.3
		C27.5,327.1,23.7,331.6,19.6,332.8z M38.8,313.1c-0.1,0.5-0.2,1-0.3,1.5c-0.1,0.4-0.2,0.8-0.3,1.2l-0.1,0.3
		c-0.3,1.2-0.6,2.1-0.8,2.9c-0.6,1.8-1.3,3.6-2.3,5.5c-0.8,1.7-1.8,3.3-2.8,4.8c-1,1.4-2,2.6-3.1,3.7c-0.5,0.5-1.1,1-1.4,1.4
		l-0.5,0.4c-0.3,0.2-0.6,0.5-0.8,0.6c-0.4,0.3-0.8,0.5-1.1,0.7c-0.2,0.1-0.4,0.3-0.6,0.4l-0.2,0.1c-0.4,0.2-0.6,0.4-0.7,0.4
		l-1.7,0.9l1.4-1.3c0,0,0.2-0.2,0.6-0.4l0.3-0.2c0.2-0.1,0.3-0.3,0.5-0.4l0.2-0.1c0.2-0.2,0.5-0.5,0.8-0.7c0.2-0.2,0.4-0.4,0.7-0.7
		c0.1-0.1,0.3-0.3,0.4-0.5c0.1-0.1,0.2-0.3,0.4-0.4c0.3-0.3,0.6-0.6,0.9-1c0.8-1,1.7-2.2,2.5-3.6c0.8-1.3,1.5-2.8,2.3-4.5
		c0.7-1.5,1.3-3.3,1.8-5.1c0.3-1,0.5-1.9,0.7-2.7l0.3-1.4c0-0.2,0.1-0.5,0.1-0.8l0.1-0.6c0.3-1.9,0.4-3.8,0.4-5.5
		c0-1.7-0.1-3.5-0.4-5.2c-0.2-1.6-0.6-3.2-1.2-4.7c-0.5-1.5-1.2-2.8-1.8-3.9c-0.2-0.3-0.4-0.6-0.5-0.8c-0.2-0.3-0.4-0.5-0.6-0.8
		c-0.3-0.5-0.7-0.9-1.2-1.4c-0.8-0.8-1.6-1.5-2.5-2c-0.7-0.5-1.5-0.8-2.3-1.1c-0.7-0.2-1.3-0.3-1.7-0.4l-0.6-0.1l-2.2-0.3l2.9-0.3
		c0.2,0,0.4,0,0.6,0c0.4,0,0.9,0,1.3,0.1c1,0.1,1.9,0.4,2.8,0.7c1.1,0.4,2.1,1,3.1,1.7c0.6,0.5,1.1,0.9,1.5,1.3
		c0.2,0.2,0.5,0.5,0.7,0.7l0,0c0.2,0.3,0.4,0.5,0.7,0.8c0.9,1.3,1.7,2.6,2.3,4.1c0.7,1.6,1.2,3.3,1.5,5c0.3,1.8,0.5,3.7,0.5,5.7
		C39.4,309.1,39.2,311.1,38.8,313.1z"/>
	<path class="st0" d="M84,268.2c-1.8-0.8-3.9-1.2-6.1-1.2c-1.7,0-3.4,0.2-5.2,0.7c-5.2,1.4-10.1,4.6-13.6,9
		c-7,8.8-10.2,18.2-10.4,30.6c-0.4,5.3,2,11.3,6.6,16.6c2.5,2.8,6.3,4.4,10.9,4.4c2,0,4.2-0.3,6.4-0.9c6.8-1.9,12.9-6.3,16.7-12.1
		c7.4-11.3,9.4-22.5,5.9-33.3C92.9,274.9,89.3,270.5,84,268.2z M68.7,323.2c-0.1,0-0.3,0-0.7,0h-0.2c-0.1,0-0.3,0-0.4,0
		c-0.1,0-0.1,0-0.2,0c-0.3,0-0.7,0-1.1-0.1c-0.3,0-0.5-0.1-0.8-0.1c-0.2,0-0.3-0.1-0.5-0.1c-0.6-0.2-1-0.3-1.5-0.5
		c-1.1-0.4-2.1-1-3.1-1.8c-1.1-0.9-2-1.9-2.9-3c-0.9-1.3-1.7-2.6-2.3-4.1c-0.3-0.9-0.6-1.6-0.8-2.4c-0.1-0.3-0.1-0.5-0.2-0.8l-0.2-1
		c-0.1-0.3-0.1-0.5-0.2-0.8c-0.3-1.8-0.5-3.7-0.5-5.6c0-2,0.2-4,0.5-5.9c0.3-1.9,0.8-3.9,1.5-5.9c0.6-1.8,1.4-3.7,2.3-5.4
		c0.2-0.4,0.4-0.8,0.7-1.2l0.1-0.1c0.2-0.4,0.4-0.7,0.6-1.1c0.4-0.7,0.9-1.3,1.5-2.2c1-1.3,2-2.5,3.1-3.5c0.8-0.8,1.7-1.6,2.7-2.3
		c0.8-0.6,1.5-0.9,1.9-1.2l0.4-0.2c0.1-0.1,0.2-0.1,0.3-0.1l2.1-0.9l-2.5,1.8c-0.4,0.3-1,0.8-1.7,1.4c-0.8,0.7-1.6,1.5-2.3,2.4
		c-0.8,1-1.7,2.1-2.5,3.5c-0.4,0.6-0.8,1.3-1.2,2.1c-0.2,0.4-0.4,0.7-0.6,1.1c-0.2,0.4-0.4,0.8-0.6,1.2c-0.7,1.5-1.3,3.2-1.8,5
		s-0.9,3.6-1.2,5.4c-0.3,1.9-0.4,3.7-0.4,5.4s0.1,3.4,0.4,5.2c0,0.2,0.1,0.5,0.1,0.7l0.1,0.5l0.3,1.2c0.2,0.6,0.4,1.4,0.7,2.3
		c0.5,1.5,1.1,2.8,1.8,4s1.4,2.2,2.2,3.1c0.9,0.9,1.7,1.5,2.5,2c0.3,0.2,0.5,0.3,0.8,0.4c0.1,0.1,0.3,0.1,0.4,0.2
		c0.1,0,0.2,0.1,0.4,0.2s0.5,0.2,0.7,0.3c0.3,0.1,0.7,0.2,0.9,0.3c0.2,0,0.3,0.1,0.5,0.1c0.1,0,0.2,0,0.2,0h0.3
		c0.2,0,0.3,0.1,0.4,0.1l1.5,0.4L68.7,323.2z M72.5,316.6c-0.6,0.1-1.2,0.2-1.8,0.2c-3.5,0-6.7-2.5-7.6-6
		c-1.9-6.9-1.7-14.5,0.6-22.5c0.6-2,1.6-4,3.1-6.2s3.5-3.8,5.6-4.3c1.9-0.5,3.7-0.2,5.2,0.9c4.2,3,5.4,8,6,13c0.1,0.7,0.1,1.5,0,2.3
		v0.3c0,0.3,0,0.6,0,0.9c0.2,3.3-0.3,6.9-1.6,11.1C80.5,311.4,76.6,315.6,72.5,316.6z M91.8,298.3c0,0.3-0.1,0.5-0.1,0.8l-0.3,1.4
		c-0.1,0.2-0.1,0.5-0.2,0.7c-0.2,1-0.5,1.9-0.8,2.8c-0.6,1.7-1.4,3.5-2.3,5.3c-0.8,1.6-1.8,3.1-2.8,4.5c-1,1.3-2,2.4-3.1,3.4
		c-0.4,0.4-0.9,0.8-1.4,1.3c-0.2,0.1-0.4,0.3-0.6,0.4c-0.3,0.2-0.5,0.4-0.7,0.5c-0.4,0.3-0.8,0.5-1.1,0.7c-0.2,0.1-0.4,0.2-0.6,0.3
		l-0.2,0.1c-0.4,0.2-0.6,0.3-0.7,0.3l-2,1l1.8-1.4c0,0,0.3-0.2,0.6-0.5c0.1,0,0.1-0.1,0.2-0.2c0.2-0.1,0.3-0.2,0.5-0.4
		c0.3-0.2,0.6-0.5,1-0.8c0.2-0.2,0.5-0.4,0.7-0.7l0.4-0.4c0.1-0.1,0.3-0.3,0.4-0.4c0.3-0.3,0.5-0.6,0.8-0.9c0.8-0.9,1.6-2,2.5-3.4
		c0.8-1.3,1.5-2.7,2.2-4.3c0.7-1.5,1.2-3.1,1.8-4.9c0.3-1,0.5-1.8,0.7-2.6l0.5-2.7c0.3-1.9,0.4-3.7,0.4-5.4s-0.1-3.4-0.4-5.2
		c-0.2-1.6-0.6-3.2-1.2-4.7c-0.5-1.5-1.2-2.9-1.8-4c-0.2-0.3-0.4-0.6-0.5-0.9l-0.2-0.2c-0.1-0.2-0.3-0.4-0.4-0.5
		c-0.4-0.6-0.8-1.1-1.2-1.4c-0.8-0.8-1.6-1.6-2.5-2.1c-0.7-0.5-1.5-0.9-2.3-1.2c-0.7-0.2-1.2-0.4-1.7-0.5l-2.7-0.5l2.8-0.1
		c0.4,0,1.1,0,1.9,0.1c1,0.2,1.9,0.4,2.8,0.8c1.1,0.5,2.1,1.1,3.1,1.9c0.6,0.5,1.1,0.9,1.5,1.4c0.2,0.2,0.5,0.5,0.7,0.8v0.1
		c0.2,0.3,0.4,0.5,0.7,0.9c0.9,1.3,1.7,2.7,2.3,4.2c0.7,1.6,1.2,3.3,1.5,5c0.3,1.7,0.5,3.6,0.5,5.6
		C92.3,294.4,92.1,296.4,91.8,298.3z"/>
</g>
</svg>
