<?xml version="1.0" encoding="utf-8"?>
<!-- Generator: Adobe Illustrator 19.1.0, SVG Export Plug-In . SVG Version: 6.00 Build 0)  -->
<svg version="1.1" id="Layer_1" xmlns="http://www.w3.org/2000/svg" xmlns:xlink="http://www.w3.org/1999/xlink" x="0px" y="0px"
	 viewBox="0 0 278.5 84.8" style="enable-background:new 0 0 278.5 84.8;" xml:space="preserve">
<style type="text/css">
	.st0{fill:#010101;}
</style>
<path class="st0" d="M169.7,83.1c0,0.2,0.2,0.3,0,0.5c0,0,0,0-0.1,0.1c0,0,0,0,0,0c0,0,0,0-0.1,0h0c0,0,0,0,0,0c0,0,0,0,0,0
	c0,0,0,0-0.1,0c0,0,0,0,0,0c0,0-0.1,0-0.1,0c0,0,0,0-0.1,0c0,0,0,0,0,0c0,0-0.1,0-0.1,0c-0.1,0-0.2,0-0.2,0c-0.1,0-0.2,0-0.4,0
	c-0.3,0-0.3,0-0.6,0h-0.6c-0.3,0-0.3,0-0.6,0c-0.3,0-0.3,0.1-0.6,0.1c0,0-0.1,0-0.1,0c0,0,0,0,0,0c0,0,0,0,0,0c0,0,0,0,0,0
	c0,0,0,0,0,0c0,0,0,0-0.1,0c-0.1,0-0.1-0.1-0.3-0.1c-0.1,0-0.2,0-0.2,0c0,0-0.1,0-0.1,0c0,0,0,0,0,0c0,0,0,0,0,0c0,0,0,0-0.1,0
	c0,0,0,0,0,0c0,0-0.1,0-0.1,0c-0.1,0-0.2,0-0.2,0c-0.1,0-0.2,0-0.4,0c-0.2,0-0.3,0-0.4,0c0,0-0.1,0-0.2,0c-0.3,0-0.3,0-0.6,0
	c-0.3,0-0.3,0.1-0.6,0.1c-0.3,0-0.3-0.1-0.6-0.1c-0.3,0-0.3,0.1-0.6,0.1c-0.3,0-0.3-0.1-0.6-0.1h-0.1c0,0,0,0,0,0h-0.1c0,0,0,0,0,0
	c-0.1,0-0.1,0-0.2,0c0,0,0,0,0,0c-0.1,0-0.1,0-0.2,0c-0.1,0-0.1,0-0.2,0c-0.1,0-0.1,0-0.2,0h-1.4c-0.3,0-0.3-0.1-0.6-0.1
	s-0.3,0-0.6,0H157c-0.2,0-0.2,0-0.5,0c-0.2,0-0.3,0-0.4,0c-0.1,0-0.1,0-0.2,0c-0.3,0-0.3,0-0.6,0c-0.3,0-0.3-0.1-0.6-0.1
	c-0.3,0-0.3,0.1-0.6,0.1s-0.3,0-0.6,0c-0.1,0-0.1,0-0.2,0c-0.1,0-0.2,0-0.4,0c-0.3,0-0.3,0-0.5,0h-0.1c-0.3,0-0.3,0-0.6,0
	c-0.3,0-0.3,0-0.6,0c-0.3,0-0.3,0-0.6,0c-0.3,0-0.3,0-0.6,0c-0.3,0-0.3,0-0.6,0c-0.3,0-0.3,0-0.5,0h-0.1c-0.1,0-0.2,0-0.2,0
	c-0.1,0-0.2,0-0.4,0c-0.2,0-0.3,0-0.4,0.1c-0.1,0-0.1,0-0.2,0c-0.3,0-0.3,0-0.6,0c-0.3,0-0.3,0-0.6,0c-0.3,0-0.3,0-0.6,0
	c-0.3,0-0.3,0-0.6,0c-0.3,0-0.3-0.1-0.6-0.1c-0.3,0-0.3,0-0.6,0c-0.3,0-0.3-0.1-0.6-0.1c-0.3,0-0.3,0-0.6,0c-0.3,0-0.3,0.1-0.6,0.1
	c-0.3,0-0.3,0-0.6,0c-0.3,0-0.3,0.1-0.6,0.1c-0.3,0-0.3-0.1-0.6-0.1h-0.1c-0.2,0-0.2,0-0.5,0c-0.3,0-0.3,0-0.6,0c-0.3,0-0.3,0-0.6,0
	c-0.3,0-0.3,0-0.6,0c-0.3,0-0.3,0-0.6,0c-0.3,0-0.3,0-0.6,0c-0.3,0-0.3,0-0.6,0c-0.1,0-0.2,0-0.2,0c-0.1,0-0.2,0-0.4,0
	c-0.3,0-0.3-0.1-0.6-0.1c-0.3,0-0.3,0-0.6,0c-0.3,0-0.3,0.1-0.6,0.1c-0.3,0-0.3-0.1-0.6-0.1c-0.3,0-0.3,0-0.6,0c-0.3,0-0.3,0-0.6,0
	c-0.3,0-0.3,0-0.6,0c-0.1,0-0.2,0-0.2,0c-0.1,0-0.2,0-0.4,0c-0.1,0-0.2,0-0.2,0h-0.2c0,0-0.1,0-0.2,0c-0.3,0-0.3,0-0.6,0
	c-0.3,0-0.3,0-0.6,0c-0.3,0-0.3-0.1-0.6-0.1c-0.3,0-0.3,0-0.6,0c-0.2,0-0.3,0-0.4,0.1c0,0-0.1,0-0.2,0c-0.3,0-0.3-0.1-0.6-0.1
	c-0.3,0-0.3,0.1-0.6,0.1c-0.1,0-0.1,0-0.2,0c-0.1,0-0.2-0.1-0.4-0.1c-0.3,0-0.3,0-0.6,0c-0.2,0-0.3,0-0.4,0c-0.1,0-0.1,0-0.2,0
	c-0.3,0-0.3,0-0.6,0c-0.1,0-0.1,0-0.2,0c-0.1,0-0.2,0.1-0.4,0.1c-0.2,0-0.3,0-0.4,0c-0.1,0-0.1,0-0.2,0c-0.3,0-0.3-0.1-0.6-0.1
	c-0.3,0-0.3,0.1-0.6,0.1c-0.3,0-0.3-0.1-0.6-0.1c-0.1,0-0.2,0-0.2,0c-0.1,0-0.2,0-0.4,0c-0.2,0-0.2,0-0.3,0c-0.1,0-0.1,0-0.3,0
	c-0.2,0-0.2,0-0.3,0c-0.1,0-0.1,0-0.3,0c-0.3,0-0.3-0.1-0.6-0.1c-0.2,0-0.3,0-0.3,0h-0.3c-0.1,0-0.1,0-0.2,0c-0.1,0-0.2,0.1-0.4,0.1
	c-0.2,0-0.3,0-0.4,0c-0.1,0-0.1,0-0.2,0c-0.3,0-0.3,0-0.6,0c-0.1,0-0.1,0-0.2,0c-0.1,0-0.2,0-0.4,0c-0.3,0-0.3,0.1-0.5,0.1h-0.1
	c-0.3,0-0.3-0.1-0.6-0.1c-0.2,0-0.3,0-0.4,0c-0.1,0-0.1,0-0.2,0c-0.2,0-0.3,0-0.4,0h0c0,0-0.1,0-0.2,0h-0.8c-0.1,0-0.2,0-0.4,0
	c-0.3,0-0.3,0-0.6,0c-0.3,0-0.3,0-0.6,0c-0.3,0-0.3,0-0.6,0c-0.3,0-0.3,0-0.6,0c0,0-0.1,0-0.1,0c0,0,0,0,0,0c0,0-0.1,0-0.1,0h0
	c0,0-0.1,0-0.1,0c0,0,0,0-0.1,0c0,0,0,0,0,0c0,0-0.1,0-0.1,0c0,0,0,0,0,0c0,0,0,0-0.1-0.1c-0.1-0.1-0.1-0.1-0.1-0.2v0
	c0-0.1,0-0.1,0.1-0.2c0,0,0,0,0-0.1c0,0,0,0,0,0c0,0,0-0.1,0-0.1c0-0.3,0-0.3,0-0.6c0-0.3-0.1-0.3-0.1-0.6c0,0,0-0.1,0-0.1
	c0,0,0-0.1,0-0.1c0-0.1-0.1-0.2,0-0.3c0,0,0,0,0-0.1s0,0,0.1-0.1c0,0,0,0,0.1-0.1c0,0,0,0,0,0c0,0,0,0,0.1,0c0,0,0,0,0,0
	c0,0,0,0,0,0c0,0,0,0,0,0c0.1,0,0.2,0.1,0.4,0.1c0,0,0,0,0.1,0c0.2,0,0.2,0,0.3,0c0,0,0,0,0.1,0h0c0,0,0,0,0,0h0c0,0,0,0,0,0h0.1
	c0,0,0,0,0,0c0.3,0,0.3,0,0.5,0h0.1c0.3,0,0.3-0.1,0.6-0.1c0.3,0,0.3,0,0.6,0c0.3,0,0.3-0.1,0.6-0.1c0.3,0,0.3,0,0.6,0
	c0.2,0,0.3,0.1,0.4,0.1c0.1,0,0.1,0,0.2,0c0.3,0,0.3-0.1,0.6-0.1c0.3,0,0.3,0,0.6,0c0.3,0,0.3,0.1,0.6,0.1c0.1,0,0.2,0,0.2,0
	c0.1,0,0.2-0.1,0.4-0.1c0.1,0,0.2,0,0.3,0c0.1,0,0.1,0,0.3,0c0.3,0,0.3,0,0.5,0.1h0.2c0.2,0,0.2,0,0.5,0c0.3,0,0.3,0,0.5,0h0.2
	c0.2,0,0.2,0,0.5,0c0.2,0,0.3,0,0.4,0c0,0,0.1,0,0.2,0c0.1,0,0.1,0,0.2,0c0.1,0,0.2,0,0.4,0c0.3,0,0.3,0,0.6,0c0.2,0,0.2,0,0.3,0
	c0.1,0,0.1,0,0.3,0c0.2,0,0.3,0,0.4,0c0.1,0,0.1,0,0.2,0c0.3,0,0.3,0.1,0.6,0.1c0.3,0,0.3,0,0.6,0c0.3,0,0.3,0,0.6,0
	c0.3,0,0.3,0.1,0.6,0.1c0.3,0,0.3-0.1,0.6-0.1c0.3,0,0.3,0,0.6,0c0.3,0,0.3,0,0.6,0c0.3,0,0.3,0,0.6,0c0.3,0,0.3,0.1,0.6,0.1
	c0.3,0,0.3,0,0.6,0c0.3,0,0.3,0,0.6,0c0.3,0,0.3,0.1,0.6,0.1c0.1,0,0.2,0,0.2,0c0.1,0,0.2-0.1,0.4-0.1c0.2,0,0.3,0,0.4,0.1
	c0,0,0.1,0,0.2,0c0.3,0,0.3-0.1,0.6-0.1c0.3,0,0.3,0,0.6,0c0.2,0,0.3,0,0.4,0c0,0,0.1,0,0.2,0c0.1,0,0.1,0,0.2,0
	c0.1,0,0.2,0.1,0.4,0.1c0.2,0,0.3,0,0.4,0h0.2c0.3,0,0.3,0,0.6,0c0.3,0,0.3,0,0.6,0c0,0,0.1,0,0.1,0h0c0,0,0,0,0.1,0c0,0,0,0,0,0
	c0,0,0,0,0,0c0,0,0.1,0,0.1,0c0,0,0.1,0,0.1,0h0c0,0,0.1,0,0.1,0c0.3,0,0.3,0,0.5-0.1c0,0,0.1,0,0.1,0c0.3,0,0.3,0,0.6,0h0.6
	c0.2,0,0.3,0,0.4,0.1c0.1,0,0.1,0,0.2,0c0.1,0,0.2,0,0.2,0c0.1,0,0.2,0,0.4,0c0.2,0,0.3,0,0.4,0c0.1,0,0.1,0,0.2,0h0.2
	c0.1,0,0.2,0,0.4,0c0.3,0,0.3,0,0.5,0h0.1c0.3,0,0.3-0.1,0.6-0.1c0.3,0,0.3,0.1,0.6,0.1c0.3,0,0.3-0.1,0.6-0.1c0.3,0,0.3,0,0.6,0
	c0.3,0,0.3,0,0.6,0c0.3,0,0.3,0,0.6,0c0.1,0,0.1,0,0.2,0c0.1,0,0.2,0,0.4,0c0.2,0,0.3,0,0.4,0h0.2c0.3,0,0.3,0,0.6,0
	c0.3,0,0.3,0,0.6,0c0.3,0,0.3,0,0.6,0h0.1c0.2,0,0.2,0,0.5,0c0.2,0,0.3,0,0.4,0c0,0,0.1,0,0.2,0c0.3,0,0.3,0,0.6,0
	c0.2,0,0.2,0,0.3,0c0.1,0,0.1,0,0.3,0c0.2,0,0.3,0,0.4,0c0.1,0,0.1,0,0.2,0c0.3,0,0.3,0,0.6,0c0.1,0,0.1,0,0.2,0
	c0.1,0,0.2-0.1,0.4-0.1c0.1,0,0.2,0,0.2,0c0.1,0,0.2,0.1,0.4,0.1c0.2,0,0.3,0,0.4,0c0.1,0,0.1,0,0.2,0c0.3,0,0.3,0,0.6,0h0.2
	c0.1,0,0.2,0,0.4,0c0.3,0,0.3,0,0.6,0c0.2,0,0.3,0,0.4,0.1c0.1,0,0.1,0,0.2,0h0.2c0.1,0,0.2,0,0.4,0c0.2,0,0.3,0,0.4,0
	c0,0,0.1,0,0.2,0c0.3,0,0.3,0,0.6,0c0.3,0,0.3,0,0.6,0h0.1c0,0,0,0,0.1,0h0c0,0,0,0,0,0c0,0,0,0,0,0c0.1,0,0.1,0,0.2,0h0.1
	c0.2,0,0.3,0,0.5,0h0.1c0.1,0,0.1,0,0.2,0c0.1,0,0.2,0,0.4,0c0.1,0,0.2,0,0.2,0c0,0,0.1,0,0.1,0c0.1,0,0.1,0,0.2,0
	c0.3,0,0.3,0,0.6,0c0.3,0,0.3,0,0.6,0c0.2,0,0.3,0,0.4,0c0.1,0,0.1,0,0.2,0c0.3,0,0.3,0.1,0.6,0.1c0,0,0.1,0,0.1,0h0c0,0,0,0,0.1,0
	c0,0,0,0,0,0h0c0.1,0,0.2,0,0.3,0c0.1,0,0.1,0,0.2,0c0.1,0,0.2,0,0.2,0h0.1c0,0,0,0,0,0h0.1c0.3,0,0.3,0.1,0.6,0.1
	c0.3,0,0.3-0.1,0.6-0.1c0.3,0,0.3,0.1,0.6,0.1c0.3,0,0.3-0.1,0.6-0.1c0.3,0,0.3,0.1,0.6,0.1c0.3,0,0.3,0,0.6,0c0.3,0,0.3,0,0.6,0
	c0.3,0,0.3,0,0.6,0c0.3,0,0.3-0.1,0.6-0.1c0,0,0.1,0,0.1,0c0.2,0,0.2,0,0.5,0c0.2,0,0.3,0,0.4,0c0.1,0,0.1,0,0.2,0c0,0,0.1,0,0.1,0
	c0,0,0,0,0,0c0.1,0,0.1,0,0.1,0c0,0,0,0,0,0c0,0,0.1,0,0.1,0c0.1,0,0.1,0,0.2,0.1c0.1,0.1,0.1,0.2,0.1,0.3c0,0,0,0.1,0,0.1
	c0,0,0,0.1,0,0.1c0,0.1,0,0.2,0,0.2c0,0,0,0.1,0,0.1c0,0.1,0,0.1,0,0.2c0,0.3,0,0.3,0,0.6C169.6,83,169.6,83,169.7,83.1z"/>
<g>
	<path class="st0" d="M21.2,80.4c-1.2,0.4-2.4,0.7-3.7,1.1c-1.1-3.6-2.2-7.2-3.3-10.7C9.9,64.3,5.5,57.9,1,51.5
		c1.3-0.4,2.6-0.8,4-1.3c3.3,5,6.6,10.1,9.7,15.1c-0.2-6-0.3-12-0.3-18c1.3-0.4,2.7-0.8,4-1.1C18.1,54.1,18,61.9,18,69.7
		C19.1,73.3,20.2,76.8,21.2,80.4z"/>
	<path class="st0" d="M45.1,49.9c1,4.4,1.9,8.8,2.9,13.2c0.9,4,0.8,6.9-0.1,8.7c-0.9,1.8-2.6,3-5,3.6c-2.4,0.6-4.4,0.3-6.1-0.9
		c-1.7-1.2-3-3.7-4.1-7.7c-1.1-4.4-2.3-8.7-3.4-13.1c-1-3.9-1-6.8,0-8.7c1-1.9,2.8-3.1,5.4-3.7c2.6-0.6,4.8-0.3,6.5,0.9
		C43,43.4,44.2,45.9,45.1,49.9z M44.3,64.7c-1.1-4.9-2.2-9.7-3.4-14.6c-1-4.5-2.9-6.4-5.5-5.8c-1.3,0.3-2.1,1-2.6,2.2
		c-0.5,1.1-0.4,3,0.3,5.5c1.2,4.8,2.4,9.7,3.6,14.5c0.6,2.5,1.4,4.2,2.3,5c0.9,0.8,1.9,1.1,3.1,0.8C44.7,71.7,45.4,69.2,44.3,64.7z"
		/>
	<path class="st0" d="M65.6,35.7c1.4-0.2,2.7-0.5,4.1-0.7c1.2,7.8,2.5,15.5,3.7,23.3c0.6,4,0.4,6.9-0.6,8.6
		c-1.1,1.7-2.8,2.8-5.1,3.2c-2.4,0.4-4.3,0-5.9-1.3c-1.6-1.3-2.8-3.9-3.6-7.9c-1.5-7.7-3-15.4-4.5-23.1c1.4-0.3,2.7-0.5,4.1-0.8
		c1.5,8,3,15.9,4.4,23.9c0.5,2.5,1.1,4.3,2,5.1c0.8,0.9,1.8,1.2,3,1c1.1-0.2,2-0.9,2.5-2c0.5-1.1,0.5-2.9,0.1-5.5
		C68.3,51.7,66.9,43.7,65.6,35.7z"/>
	<path class="st0" d="M85.5,66.7c-1.5-11.1-2.9-22.2-4.4-33.3c2.2-0.3,4.3-0.6,6.5-0.8c2.6-0.3,4.7,0.2,6.3,1.6
		c1.6,1.3,2.6,4,2.9,7.9c0,0.1,0,0.2,0,0.2c0.5,4.8-0.5,8-2.8,9.6c1.9,4.4,3.7,8.8,5.5,13.2c-1.3,0.1-2.7,0.3-4,0.4
		c-1.7-4.1-3.5-8.2-5.3-12.4c-0.8,0.1-1.6,0.2-2.4,0.3c0.5,4.3,1,8.5,1.6,12.8C88.1,66.4,86.8,66.5,85.5,66.7z M92.8,43.1
		c-0.1-0.5-0.1-1-0.2-1.4c-0.3-2.4-0.8-4.1-1.6-5c-0.8-0.9-1.8-1.2-3.1-1.1c-0.8,0.1-1.5,0.2-2.3,0.3c0.6,4.8,1.2,9.7,1.8,14.5
		c0.7-0.1,1.5-0.2,2.2-0.3C92.2,49.9,93.3,47.5,92.8,43.1z"/>
	<path class="st0" d="M131.3,55.7c-0.1-2.6-1-4.5-2.8-5.8c-1.4-0.9-2.7-1.8-4.1-2.7c-3.1-1.9-4.8-4.9-5-8.9
		c-0.2-3.3,0.4-5.7,1.7-7.1c1.3-1.4,3.2-2.1,5.6-2.2c2.4-0.1,4.3,0.5,5.6,1.7c1.4,1.2,2.2,3.4,2.5,6.7c-1.3,0.3-2.6,0.6-3.9,0.9
		c-0.2-4.1-1.6-6.1-4-6c-2.5,0.1-3.6,1.9-3.5,5.4c0.1,1.5,0.3,2.8,0.7,3.7c0.4,0.9,1.1,1.8,2.2,2.5c1.4,0.9,2.7,1.8,4.1,2.7
		c1,0.6,1.7,1.2,2.3,1.8c0.6,0.6,1.1,1.5,1.7,2.7c0.5,1.3,0.8,2.7,0.8,4.5c0,3.1-0.6,5.2-1.9,6.5c-1.3,1.3-3.1,1.9-5.4,2
		c-2.3,0.1-4.1-0.6-5.5-2c-1.4-1.4-2.3-4-2.8-7.8c1.2-0.3,2.5-0.5,3.7-0.8c0.2,2.7,0.7,4.6,1.4,5.8c0.7,1.1,1.7,1.7,2.9,1.6
		C130.1,60.8,131.3,59.1,131.3,55.7z"/>
	<path class="st0" d="M145.2,63.1c0.1-11.2,0.3-22.4,0.4-33.6c1.4,0,2.8,0,4.2,0.1c-0.2,10.2-0.4,20.3-0.7,30.5
		c2.5,0.1,5.1,0.1,7.6,0.2c0,1-0.1,2-0.1,3.1C152.8,63.3,149,63.2,145.2,63.1z"/>
	<path class="st0" d="M170.2,48.9c-0.3,4-0.6,8.1-0.8,12.1c2.8,0.2,5.7,0.4,8.5,0.7c-0.1,1-0.2,2-0.3,3.1c-4.1-0.4-8.2-0.7-12.3-0.9
		c0.7-11.2,1.4-22.4,2-33.5c4.4,0.3,8.8,0.6,13.2,1c-0.1,1-0.2,2-0.3,3.1c-3-0.3-5.9-0.5-8.9-0.7c-0.3,4.1-0.6,8.1-0.9,12.2
		c2.6,0.2,5.3,0.4,7.9,0.6c-0.1,1-0.2,2-0.3,3.1C175.5,49.3,172.9,49.1,170.2,48.9z"/>
	<path class="st0" d="M193.3,51.2c-0.5,4-1,8-1.5,12.1c2.8,0.4,5.7,0.7,8.5,1.1c-0.1,1-0.3,2-0.4,3c-4.1-0.6-8.2-1.1-12.3-1.6
		c1.3-11.1,2.5-22.3,3.8-33.4c4.4,0.5,8.8,1.1,13.1,1.7c-0.1,1-0.3,2-0.4,3c-3-0.4-5.9-0.8-8.9-1.2c-0.5,4-1,8.1-1.5,12.1
		c2.6,0.3,5.3,0.7,7.9,1c-0.1,1-0.3,2-0.4,3C198.5,51.8,195.9,51.5,193.3,51.2z"/>
	<path class="st0" d="M217.1,36.1c0.1,9.5,0.2,19,0.1,28.5c3.3-8.9,6.8-17.7,10.3-26.6c1.4,0.3,2.8,0.6,4.1,0.8
		c-4.5,10.5-8.9,21.1-13.1,31.7c-1.6-0.3-3.2-0.6-4.8-0.9c-0.1-11.4-0.4-22.8-0.8-34.2C214.3,35.6,215.7,35.9,217.1,36.1z"/>
	<path class="st0" d="M240.7,59.8c-0.9,3.9-1.9,7.9-2.8,11.8c2.8,0.7,5.6,1.4,8.3,2.1c-0.3,1-0.5,2-0.8,3c-4-1-8.1-2-12.1-3
		c2.5-10.9,5-21.8,7.5-32.7c4.3,1,8.6,2,12.9,3.2c-0.3,1-0.5,2-0.8,3c-2.9-0.8-5.8-1.5-8.7-2.2c-0.9,4-1.9,7.9-2.8,11.9
		c2.6,0.6,5.2,1.3,7.8,1.9c-0.3,1-0.5,2-0.8,3C245.8,61,243.3,60.4,240.7,59.8z"/>
	<path class="st0" d="M267.5,75.1c0.8-2.4,0.5-4.6-0.8-6.4c-1-1.3-2-2.6-3.1-3.9c-2.4-2.8-3-6.2-1.9-10c0.9-3.2,2.2-5.2,3.9-6.1
		c1.7-0.9,3.7-1,6.1-0.3c2.3,0.7,4,1.9,4.9,3.5c0.9,1.6,1,4,0.3,7.1c-1.3-0.2-2.7-0.3-4-0.4c1.1-3.9,0.5-6.3-1.9-7
		c-2.4-0.7-4.1,0.6-5.1,3.9c-0.4,1.5-0.6,2.7-0.5,3.7c0.1,1,0.5,2,1.3,3.1c1,1.3,2,2.6,3,3.9c0.7,0.9,1.3,1.7,1.6,2.4
		c0.4,0.7,0.6,1.8,0.7,3.1c0.1,1.4-0.1,2.9-0.6,4.5c-1,2.9-2.3,4.8-4,5.5c-1.7,0.8-3.6,0.8-5.8,0.1c-2.2-0.7-3.8-1.9-4.6-3.7
		c-0.9-1.8-0.9-4.5-0.2-8.2c1.3,0.1,2.5,0.3,3.8,0.4c-0.6,2.6-0.8,4.6-0.5,5.9c0.3,1.3,1.1,2.1,2.2,2.5
		C264.8,79.6,266.5,78.4,267.5,75.1z"/>
</g>
<g>
	<path class="st0" d="M91,12.6v1.6h-5.5v-1.6l1.4-0.5V3.5L85.5,3V1.5l4.2-0.1h1.4c1.5,0,2.7,0.3,3.5,0.9c0.8,0.6,1.2,1.5,1.2,2.8
		c0,1.6-0.7,2.8-2.1,3.4c0.3,0.4,0.6,0.7,0.8,1.2l1.2,2.5l1.2,0.4v1.6h-3.4l-1.5-3.4c-0.3-0.7-0.6-1.2-0.8-1.4
		c-0.2-0.2-0.5-0.3-1-0.3h-0.6v3L91,12.6z M89.7,3.5v3.7h1c0.7,0,1.3-0.2,1.7-0.5S93,6,93,5.3c0-0.5-0.2-1-0.5-1.3
		c-0.3-0.3-0.8-0.5-1.3-0.5H89.7z"/>
	<path class="st0" d="M109.6,1.2c1.8,0,3.2,0.6,4.2,1.7s1.5,2.7,1.5,4.7c0,2-0.6,3.7-1.7,4.9c-1.1,1.2-2.6,1.9-4.4,1.9
		s-3.2-0.6-4.2-1.7c-1-1.1-1.5-2.7-1.5-4.9c0-2.1,0.5-3.7,1.6-4.9C106.3,1.8,107.8,1.2,109.6,1.2z M109.5,3.4c-0.9,0-1.7,0.3-2.1,1
		c-0.5,0.7-0.7,1.8-0.7,3.4c0,1.5,0.2,2.6,0.7,3.3c0.4,0.7,1.1,1.1,2,1.1c1,0,1.7-0.3,2.2-1c0.5-0.7,0.8-1.8,0.8-3.4
		c0-1.5-0.2-2.6-0.7-3.2C111.1,3.8,110.4,3.4,109.5,3.4z"/>
	<path class="st0" d="M126.5,3.5v8.5h2.8l0.4-2.1h1.7v4.2h-9.1v-1.6l1.4-0.5V3.5L122.4,3V1.5l5.5-0.1V3L126.5,3.5z"/>
	<path class="st0" d="M141.8,3.5v8.5h2.8L145,10h1.7v4.2h-9.1v-1.6l1.4-0.5V3.5L137.6,3V1.5l5.5-0.1V3L141.8,3.5z"/>
	<path class="st0" d="M166.8,3.5v5.8c0,1.1,0.2,1.8,0.5,2.2c0.4,0.4,1,0.7,1.8,0.7c0.9,0,1.5-0.2,1.9-0.7c0.3-0.5,0.5-1.3,0.5-2.4
		V3.5L170,3V1.5l5.6-0.1V3l-1.4,0.5V9c0,1.8-0.4,3.2-1.2,4.1c-0.8,0.9-2.1,1.3-4,1.3c-1.8,0-3.1-0.4-3.9-1.2
		c-0.8-0.8-1.2-2.1-1.2-3.9V3.5L162.6,3V1.5l5.6-0.1V3L166.8,3.5z"/>
	<path class="st0" d="M187.9,12.6v1.6h-5.5v-1.6l1.4-0.5V3.5L182.4,3V1.5l4.2-0.1h1.7c1.4,0,2.5,0.3,3.2,1s1.2,1.6,1.2,2.8
		c0,1.5-0.4,2.6-1.3,3.4s-2.2,1.1-3.8,1.1h-1v2.4L187.9,12.6z M186.6,3.5v4.1h1c0.8,0,1.3-0.2,1.8-0.5c0.4-0.4,0.6-0.9,0.6-1.5
		c0-0.6-0.2-1.1-0.5-1.5c-0.3-0.4-0.8-0.6-1.4-0.6H186.6z"/>
</g>
</svg>
